{
  "accessors": [
    {
      "bufferView": 2,
      "componentType": 5126,
      "count": 4709,
      "max": [
        0.5775260329246521,
        5.403095245361328,
        3.1825168132781982
      ],
      "min": [
        -4.096783638000488,
        -0.5807974338531494,
        -0.09500008821487427
      ],
      "type": "VEC3"
    },
    {
      "bufferView": 2,
      "byteOffset": 56508,
      "componentType": 5126,
      "count": 4709,
      "max": [
        1.0,
        1.0,
        1.0
      ],
      "min": [
        -1.0,
        -1.0,
        -1.0
      ],
      "type": "VEC3"
    },
    {
      "bufferView": 1,
      "componentType": 5126,
      "count": 4709,
      "max": [
        0.9663955569267273,
        0.9750277996063232
      ],
      "min": [
        0.024972112849354744,
        0.02497209794819355
      ],
      "type": "VEC2"
    },
    {
      "bufferView": 0,
      "componentType": 5125,
      "count": 7404,
      "type": "SCALAR"
    },
    {
      "bufferView": 2,
      "byteOffset": 113016,
      "componentType": 5126,
      "count": 338,
      "max": [
        2.0836455821990967,
        4.951066970825195,
        2.3196353912353516
      ],
      "min": [
        -5.335962772369385,
        -1.0085582733154297,
        -1.0
      ],
      "type": "VEC3"
    },
    {
      "bufferView": 2,
      "byteOffset": 117072,
      "componentType": 5126,
      "count": 338,
      "max": [
        1.0,
        1.0,
        1.0
      ],
      "min": [
        -1.0,
        -1.0,
        -1.0
      ],
      "type": "VEC3"
    },
    {
      "bufferView": 1,
      "byteOffset": 37672,
      "componentType": 5126,
      "count": 338,
      "max": [
        0.9819152355194092,
        0.9714224338531494
      ],
      "min": [
        0.01808476634323597,
        0.01808476261794567
      ],
      "type": "VEC2"
    },
    {
      "bufferView": 0,
      "byteOffset": 29616,
      "componentType": 5125,
      "count": 576,
      "type": "SCALAR"
    },
    {
      "bufferView": 2,
      "byteOffset": 121128,
      "componentType": 5126,
      "count": 5460,
      "max": [
        0.5775260329246521,
        5.403095245361328,
        3.1825168132781982
      ],
      "min": [
        -4.096783638000488,
        -0.5807974338531494,
        -0.09500008821487427
      ],
      "type": "VEC3"
    },
    {
      "bufferView": 2,
      "byteOffset": 186648,
      "componentType": 5126,
      "count": 5460,
      "max": [
        1.0,
        1.0,
        1.0
      ],
      "min": [
        -1.0,
        -1.0,
        -1.0
      ],
      "type": "VEC3"
    },
    {
      "bufferView": 1,
      "byteOffset": 40376,
      "componentType": 5126,
      "count": 5460,
      "max": [
        0.9663955569267273,
        1.0
      ],
      "min": [
        0.024972112849354744,
        0.0
      ],
      "type": "VEC2"
    },
    {
      "bufferView": 0,
      "byteOffset": 31920,
      "componentType": 5125,
      "count": 8934,
      "type": "SCALAR"
    },
    {
      "bufferView": 2,
      "byteOffset": 252168,
      "componentType": 5126,
      "count": 384,
      "max": [
        2.0836455821990967,
        4.951066970825195,
        2.3196353912353516
      ],
      "min": [
        -5.335962772369385,
        -1.0085582733154297,
        -1.0
      ],
      "type": "VEC3"
    },
    {
      "bufferView": 2,
      "byteOffset": 256776,
      "componentType": 5126,
      "count": 384,
      "max": [
        1.0,
        1.0,
        1.0
      ],
      "min": [
        -1.0,
        -1.0,
        -1.0
      ],
      "type": "VEC3"
    },
    {
      "bufferView": 1,
      "byteOffset": 84056,
      "componentType": 5126,
      "count": 384,
      "max": [
        0.9819152355194092,
        0.9714224338531494
      ],
      "min": [
        0.01808476634323597,
        0.01808476261794567
      ],
      "type": "VEC2"
    },
    {
      "bufferView": 0,
      "byteOffset": 67656,
      "componentType": 5125,
      "count": 642,
      "type": "SCALAR"
    }
  ],
  "asset": {
    "extras": {
      "author": "RedMofficial (https://sketchfab.com/honzaistokcz1)",
      "license": "CC-BY-4.0 (http://creativecommons.org/licenses/by/4.0/)",
      "source": "https://sketchfab.com/3d-models/bbq-grill-mix-0f2116c1d200404aab7f31ecf1ba5ed8",
      "title": "BBQ Grill Mix"
    },
    "generator": "Sketchfab-16.75.0",
    "version": "2.0"
  },
  "bufferViews": [
    {
      "buffer": 0,
      "byteLength": 70224,
      "name": "floatBufferViews",
      "target": 34963
    },
    {
      "buffer": 0,
      "byteLength": 87128,
      "byteOffset": 70224,
      "byteStride": 8,
      "name": "floatBufferViews",
      "target": 34962
    },
    {
      "buffer": 0,
      "byteLength": 261384,
      "byteOffset": 157352,
      "byteStride": 12,
      "name": "floatBufferViews",
      "target": 34962
    }
  ],
  "buffers": [
    {
      "byteLength": 418736,
      "uri": "scene.bin"
    }
  ],
  "images": [
    {
      "uri": "textures/Material.001_baseColor.png"
    },
    {
      "uri": "textures/Material.002_baseColor.png"
    }
  ],
  "materials": [
    {
      "doubleSided": true,
      "name": "Material.001",
      "pbrMetallicRoughness": {
        "baseColorTexture": {
          "index": 0
        },
        "metallicFactor": 0.0,
        "roughnessFactor": 0.8211145618000169
      }
    },
    {
      "doubleSided": true,
      "name": "Material.002",
      "pbrMetallicRoughness": {
        "baseColorTexture": {
          "index": 1
        },
        "metallicFactor": 0.0,
        "roughnessFactor": 0.8211145618000169
      }
    },
    {
      "doubleSided": true,
      "name": "Material.003",
      "pbrMetallicRoughness": {
        "baseColorTexture": {
          "index": 0
        },
        "metallicFactor": 0.0,
        "roughnessFactor": 0.8211145618000169
      }
    },
    {
      "doubleSided": true,
      "name": "Material.004",
      "pbrMetallicRoughness": {
        "baseColorTexture": {
          "index": 1
        },
        "metallicFactor": 0.0,
        "roughnessFactor": 0.8211145618000169
      }
    }
  ],
  "meshes": [
    {
      "name": "Wheels_Material.001_0",
      "primitives": [
        {
          "attributes": {
            "NORMAL": 1,
            "POSITION": 0,
            "TEXCOORD_0": 2
          },
          "indices": 3,
          "material": 0,
          "mode": 4
        }
      ]
    },
    {
      "name": "GrillOpenThing_Material.002_0",
      "primitives": [
        {
          "attributes": {
            "NORMAL": 5,
            "POSITION": 4,
            "TEXCOORD_0": 6
          },
          "indices": 7,
          "material": 1,
          "mode": 4
        }
      ]
    },
    {
      "name": "Wheels.001_Material.003_0",
      "primitives": [
        {
          "attributes": {
            "NORMAL": 9,
            "POSITION": 8,
            "TEXCOORD_0": 10
          },
          "indices": 11,
          "material": 2,
          "mode": 4
        }
      ]
    },
    {
      "name": "GrillOpenThing.001_Material.004_0",
      "primitives": [
        {
          "attributes": {
            "NORMAL": 13,
            "POSITION": 12,
            "TEXCOORD_0": 14
          },
          "indices": 15,
          "material": 3,
          "mode": 4
        }
      ]
    }
  ],
  "nodes": [
    {
      "children": [
        1
      ],
      "matrix": [
        1.0,
        0.0,
        0.0,
        0.0,
        0.0,
        3.828568672208042e-16,
        -1.0,
        0.0,
        0.0,
        1.0,
        3.828568672208042e-16,
        0.0,
        0.0,
        0.0,
        0.0,
        1.0
      ],
      "name": "Sketchfab_model"
    },
    {
      "children": [
        2
      ],
      "matrix": [
        0.009999999776482582,
        0.0,
        0.0,
        0.0,
        0.0,
        0.0,
        0.009999999776482582,
        0.0,
        0.0,
        -0.009999999776482582,
        0.0,
        0.0,
        0.0,
        0.0,
        0.0,
        1.0
      ],
      "name": "BBQGrillMix.fbx"
    },
    {
      "children": [
        3,
        5,
        7,
        9
      ],
      "name": "RootNode"
    },
    {
      "children": [
        4
      ],
      "matrix": [
        -4.371138984105016e-06,
        -99.99999999999973,
        5.960463766996327e-06,
        0.0,
        -1.6292068227841128e-05,
        -5.960463056453591e-06,
        -99.9999999999985,
        0.0,
        99.99999999999858,
        -4.371139955550163e-06,
        -1.6292067961387602e-05,
        0.0,
        -304.6496887207031,
        0.31853893399238586,
        702.6686401367188,
        1.0
      ],
      "name": "Wheels"
    },
    {
      "mesh": 0,
      "name": "Wheels_Material.001_0"
    },
    {
      "children": [
        6
      ],
      "matrix": [
        49.86114501953125,
        0.0,
        0.0,
        0.0,
        -0.0,
        -8.123411621836662e-06,
        -49.86114501953059,
        0.0,
        0.0,
        49.86114501953059,
        -8.123411621836662e-06,
        0.0,
        -46.01753234863281,
        360.20989990234375,
        647.6483154296875,
        1.0
      ],
      "name": "GrillOpenThing"
    },
    {
      "mesh": 1,
      "name": "GrillOpenThing_Material.002_0"
    },
    {
      "children": [
        8
      ],
      "matrix": [
        -4.371138984105016e-06,
        -99.99999999999973,
        5.960463766996327e-06,
        0.0,
        -1.6292068227841128e-05,
        -5.960463056453591e-06,
        -99.9999999999985,
        0.0,
        99.99999999999858,
        -4.371139955550163e-06,
        -1.6292067961387602e-05,
        0.0,
        -304.6496887207031,
        0.0,
        -358.35382080078125,
        1.0
      ],
      "name": "Wheels.001"
    },
    {
      "mesh": 2,
      "name": "Wheels.001_Material.003_0"
    },
    {
      "children": [
        10
      ],
      "matrix": [
        -12.453952587463732,
        48.28077099226901,
        -2.5741790951509166e-06,
        0.0,
        2.753379266376882e-06,
        -1.9482096145862296e-06,
        -49.861145019531136,
        0.0,
        -48.280770992269,
        -12.453952587463846,
        -2.1794999589412655e-06,
        0.0,
        -423.71209716796875,
        554.4061889648438,
        -413.3397216796875,
        1.0
      ],
      "name": "GrillOpenThing.001"
    },
    {
      "mesh": 3,
      "name": "GrillOpenThing.001_Material.004_0"
    }
  ],
  "samplers": [
    {
      "magFilter": 9729,
      "minFilter": 9987,
      "wrapS": 10497,
      "wrapT": 10497
    }
  ],
  "scene": 0,
  "scenes": [
    {
      "name": "Sketchfab_Scene",
      "nodes": [
        0
      ]
    }
  ],
  "textures": [
    {
      "sampler": 0,
      "source": 0
    },
    {
      "sampler": 0,
      "source": 1
    }
  ]
}
