{
  "accessors": [
    {
      "bufferView": 2,
      "componentType": 5126,
      "count": 65532,
      "max": [
        0.3665771484375,
        0.49847412109375,
        0.411041259765625
      ],
      "min": [
        -0.1988983154296875,
        -0.07007598876953125,
        -0.159454345703125
      ],
      "type": "VEC3"
    },
    {
      "bufferView": 2,
      "byteOffset": 786384,
      "componentType": 5126,
      "count": 65532,
      "max": [
        0.9999595284461975,
        0.9999905824661255,
        0.999936044216156
      ],
      "min": [
        -0.9540700316429138,
        -0.9986270070075989,
        -0.99642413854599
      ],
      "type": "VEC3"
    },
    {
      "bufferView": 1,
      "componentType": 5126,
      "count": 65532,
      "max": [
        0.879638671875,
        0.9892578125
      ],
      "min": [
        0.00048828125,
        0.00830078125
      ],
      "type": "VEC2"
    },
    {
      "bufferView": 1,
      "byteOffset": 524256,
      "componentType": 5126,
      "count": 65532,
      "max": [
        0.879638671875,
        0.9892578125
      ],
      "min": [
        0.00048828125,
        0.00830078125
      ],
      "type": "VEC2"
    },
    {
      "bufferView": 1,
      "byteOffset": 1048512,
      "componentType": 5126,
      "count": 65532,
      "max": [
        0.879638671875,
        0.9892578125
      ],
      "min": [
        0.00048828125,
        0.00830078125
      ],
      "type": "VEC2"
    },
    {
      "bufferView": 1,
      "byteOffset": 1572768,
      "componentType": 5126,
      "count": 65532,
      "max": [
        0.879638671875,
        0.9892578125
      ],
      "min": [
        0.00048828125,
        0.00830078125
      ],
      "type": "VEC2"
    },
    {
      "bufferView": 0,
      "componentType": 5125,
      "count": 359952,
      "type": "SCALAR"
    },
    {
      "bufferView": 2,
      "byteOffset": 1572768,
      "componentType": 5126,
      "count": 65532,
      "max": [
        0.371612548828125,
        0.5,
        0.4112548828125
      ],
      "min": [
        -0.37127685546875,
        -0.04552459716796875,
        -0.262603759765625
      ],
      "type": "VEC3"
    },
    {
      "bufferView": 2,
      "byteOffset": 2359152,
      "componentType": 5126,
      "count": 65532,
      "max": [
        0.9999739527702332,
        0.9999861717224121,
        0.9999609589576721
      ],
      "min": [
        -0.9993260502815247,
        -0.9864343404769897,
        -0.9963894486427307
      ],
      "type": "VEC3"
    },
    {
      "bufferView": 1,
      "byteOffset": 2097024,
      "componentType": 5126,
      "count": 65532,
      "max": [
        0.87890625,
        0.982177734375
      ],
      "min": [
        0.00244140625,
        0.13330078125
      ],
      "type": "VEC2"
    },
    {
      "bufferView": 1,
      "byteOffset": 2621280,
      "componentType": 5126,
      "count": 65532,
      "max": [
        0.87890625,
        0.982177734375
      ],
      "min": [
        0.00244140625,
        0.13330078125
      ],
      "type": "VEC2"
    },
    {
      "bufferView": 1,
      "byteOffset": 3145536,
      "componentType": 5126,
      "count": 65532,
      "max": [
        0.87890625,
        0.982177734375
      ],
      "min": [
        0.00244140625,
        0.13330078125
      ],
      "type": "VEC2"
    },
    {
      "bufferView": 1,
      "byteOffset": 3669792,
      "componentType": 5126,
      "count": 65532,
      "max": [
        0.87890625,
        0.982177734375
      ],
      "min": [
        0.00244140625,
        0.13330078125
      ],
      "type": "VEC2"
    },
    {
      "bufferView": 0,
      "byteOffset": 1439808,
      "componentType": 5125,
      "count": 346350,
      "type": "SCALAR"
    },
    {
      "bufferView": 2,
      "byteOffset": 3145536,
      "componentType": 5126,
      "count": 65532,
      "max": [
        0.366973876953125,
        0.494659423828125,
        0.391357421875
      ],
      "min": [
        -0.37164306640625,
        -0.2332000732421875,
        -0.36456298828125
      ],
      "type": "VEC3"
    },
    {
      "bufferView": 2,
      "byteOffset": 3931920,
      "componentType": 5126,
      "count": 65532,
      "max": [
        1.0,
        0.9999905824661255,
        1.0
      ],
      "min": [
        -0.99998939037323,
        -0.989594042301178,
        -1.0
      ],
      "type": "VEC3"
    },
    {
      "bufferView": 1,
      "byteOffset": 4194048,
      "componentType": 5126,
      "count": 65532,
      "max": [
        0.994140625,
        0.998779296875
      ],
      "min": [
        0.003662109375,
        0.0
      ],
      "type": "VEC2"
    },
    {
      "bufferView": 1,
      "byteOffset": 4718304,
      "componentType": 5126,
      "count": 65532,
      "max": [
        0.994140625,
        0.998779296875
      ],
      "min": [
        0.003662109375,
        0.0
      ],
      "type": "VEC2"
    },
    {
      "bufferView": 1,
      "byteOffset": 5242560,
      "componentType": 5126,
      "count": 65532,
      "max": [
        0.994140625,
        0.998779296875
      ],
      "min": [
        0.003662109375,
        0.0
      ],
      "type": "VEC2"
    },
    {
      "bufferView": 1,
      "byteOffset": 5766816,
      "componentType": 5126,
      "count": 65532,
      "max": [
        0.994140625,
        0.998779296875
      ],
      "min": [
        0.003662109375,
        0.0
      ],
      "type": "VEC2"
    },
    {
      "bufferView": 0,
      "byteOffset": 2825208,
      "componentType": 5125,
      "count": 336882,
      "type": "SCALAR"
    },
    {
      "bufferView": 2,
      "byteOffset": 4718304,
      "componentType": 5126,
      "count": 65532,
      "max": [
        0.37158203125,
        0.49993896484375,
        0.06262969970703125
      ],
      "min": [
        -0.354949951171875,
        -0.053562164306640625,
        -0.391082763671875
      ],
      "type": "VEC3"
    },
    {
      "bufferView": 2,
      "byteOffset": 5504688,
      "componentType": 5126,
      "count": 65532,
      "max": [
        1.0,
        0.9999217987060547,
        0.999937117099762
      ],
      "min": [
        -1.0,
        -0.9993909597396851,
        -1.0
      ],
      "type": "VEC3"
    },
    {
      "bufferView": 1,
      "byteOffset": 6291072,
      "componentType": 5126,
      "count": 65532,
      "max": [
        0.99462890625,
        0.990234375
      ],
      "min": [
        0.000244140625,
        0.013916015625
      ],
      "type": "VEC2"
    },
    {
      "bufferView": 1,
      "byteOffset": 6815328,
      "componentType": 5126,
      "count": 65532,
      "max": [
        0.99462890625,
        0.990234375
      ],
      "min": [
        0.000244140625,
        0.013916015625
      ],
      "type": "VEC2"
    },
    {
      "bufferView": 1,
      "byteOffset": 7339584,
      "componentType": 5126,
      "count": 65532,
      "max": [
        0.99462890625,
        0.990234375
      ],
      "min": [
        0.000244140625,
        0.013916015625
      ],
      "type": "VEC2"
    },
    {
      "bufferView": 1,
      "byteOffset": 7863840,
      "componentType": 5126,
      "count": 65532,
      "max": [
        0.99462890625,
        0.990234375
      ],
      "min": [
        0.000244140625,
        0.013916015625
      ],
      "type": "VEC2"
    },
    {
      "bufferView": 0,
      "byteOffset": 4172736,
      "componentType": 5125,
      "count": 340455,
      "type": "SCALAR"
    },
    {
      "bufferView": 2,
      "byteOffset": 6291072,
      "componentType": 5126,
      "count": 65532,
      "max": [
        0.368377685546875,
        0.36724853515625,
        0.410888671875
      ],
      "min": [
        -0.371612548828125,
        -0.346435546875,
        -0.390960693359375
      ],
      "type": "VEC3"
    },
    {
      "bufferView": 2,
      "byteOffset": 7077456,
      "componentType": 5126,
      "count": 65532,
      "max": [
        0.9999457001686096,
        0.997199296951294,
        1.0
      ],
      "min": [
        -1.0,
        -0.9999088048934937,
        -1.0
      ],
      "type": "VEC3"
    },
    {
      "bufferView": 1,
      "byteOffset": 8388096,
      "componentType": 5126,
      "count": 65532,
      "max": [
        0.9462890625,
        0.9931640625
      ],
      "min": [
        0.04296875,
        0.006591796875
      ],
      "type": "VEC2"
    },
    {
      "bufferView": 1,
      "byteOffset": 8912352,
      "componentType": 5126,
      "count": 65532,
      "max": [
        0.9462890625,
        0.9931640625
      ],
      "min": [
        0.04296875,
        0.006591796875
      ],
      "type": "VEC2"
    },
    {
      "bufferView": 1,
      "byteOffset": 9436608,
      "componentType": 5126,
      "count": 65532,
      "max": [
        0.9462890625,
        0.9931640625
      ],
      "min": [
        0.04296875,
        0.006591796875
      ],
      "type": "VEC2"
    },
    {
      "bufferView": 1,
      "byteOffset": 9960864,
      "componentType": 5126,
      "count": 65532,
      "max": [
        0.9462890625,
        0.9931640625
      ],
      "min": [
        0.04296875,
        0.006591796875
      ],
      "type": "VEC2"
    },
    {
      "bufferView": 0,
      "byteOffset": 5534556,
      "componentType": 5125,
      "count": 337653,
      "type": "SCALAR"
    },
    {
      "bufferView": 2,
      "byteOffset": 7863840,
      "componentType": 5126,
      "count": 65532,
      "max": [
        0.337310791015625,
        0.051105499267578125,
        0.206695556640625
      ],
      "min": [
        -0.1142425537109375,
        -0.499755859375,
        -0.39044189453125
      ],
      "type": "VEC3"
    },
    {
      "bufferView": 2,
      "byteOffset": 8650224,
      "componentType": 5126,
      "count": 65532,
      "max": [
        1.0,
        0.7208808660507202,
        0.9999999403953552
      ],
      "min": [
        -1.0,
        -0.9999781250953674,
        -0.9999890923500061
      ],
      "type": "VEC3"
    },
    {
      "bufferView": 1,
      "byteOffset": 10485120,
      "componentType": 5126,
      "count": 65532,
      "max": [
        0.955810546875,
        0.99951171875
      ],
      "min": [
        0.01416015625,
        0.007568359375
      ],
      "type": "VEC2"
    },
    {
      "bufferView": 1,
      "byteOffset": 11009376,
      "componentType": 5126,
      "count": 65532,
      "max": [
        0.955810546875,
        0.99951171875
      ],
      "min": [
        0.01416015625,
        0.007568359375
      ],
      "type": "VEC2"
    },
    {
      "bufferView": 1,
      "byteOffset": 11533632,
      "componentType": 5126,
      "count": 65532,
      "max": [
        0.955810546875,
        0.99951171875
      ],
      "min": [
        0.01416015625,
        0.007568359375
      ],
      "type": "VEC2"
    },
    {
      "bufferView": 1,
      "byteOffset": 12057888,
      "componentType": 5126,
      "count": 65532,
      "max": [
        0.955810546875,
        0.99951171875
      ],
      "min": [
        0.01416015625,
        0.007568359375
      ],
      "type": "VEC2"
    },
    {
      "bufferView": 0,
      "byteOffset": 6885168,
      "componentType": 5125,
      "count": 364416,
      "type": "SCALAR"
    },
    {
      "bufferView": 2,
      "byteOffset": 9436608,
      "componentType": 5126,
      "count": 65532,
      "max": [
        0.128662109375,
        0.092926025390625,
        0.065277099609375
      ],
      "min": [
        -0.36981201171875,
        -0.489898681640625,
        -0.4112548828125
      ],
      "type": "VEC3"
    },
    {
      "bufferView": 2,
      "byteOffset": 10222992,
      "componentType": 5126,
      "count": 65532,
      "max": [
        0.9995019435882568,
        0.9995970726013184,
        1.0
      ],
      "min": [
        -1.0,
        -0.9999123811721802,
        -1.0
      ],
      "type": "VEC3"
    },
    {
      "bufferView": 1,
      "byteOffset": 12582144,
      "componentType": 5126,
      "count": 65532,
      "max": [
        0.750244140625,
        0.9267578125
      ],
      "min": [
        0.016357421875,
        0.01806640625
      ],
      "type": "VEC2"
    },
    {
      "bufferView": 1,
      "byteOffset": 13106400,
      "componentType": 5126,
      "count": 65532,
      "max": [
        0.750244140625,
        0.9267578125
      ],
      "min": [
        0.016357421875,
        0.01806640625
      ],
      "type": "VEC2"
    },
    {
      "bufferView": 1,
      "byteOffset": 13630656,
      "componentType": 5126,
      "count": 65532,
      "max": [
        0.750244140625,
        0.9267578125
      ],
      "min": [
        0.016357421875,
        0.01806640625
      ],
      "type": "VEC2"
    },
    {
      "bufferView": 1,
      "byteOffset": 14154912,
      "componentType": 5126,
      "count": 65532,
      "max": [
        0.750244140625,
        0.9267578125
      ],
      "min": [
        0.016357421875,
        0.01806640625
      ],
      "type": "VEC2"
    },
    {
      "bufferView": 0,
      "byteOffset": 8342832,
      "componentType": 5125,
      "count": 363783,
      "type": "SCALAR"
    },
    {
      "bufferView": 2,
      "byteOffset": 11009376,
      "componentType": 5126,
      "count": 65532,
      "max": [
        0.3634033203125,
        0.2294921875,
        0.314727783203125
      ],
      "min": [
        -0.369384765625,
        -0.5,
        -0.38922119140625
      ],
      "type": "VEC3"
    },
    {
      "bufferView": 2,
      "byteOffset": 11795760,
      "componentType": 5126,
      "count": 65532,
      "max": [
        0.9998854398727417,
        0.9983522295951843,
        0.9942189455032349
      ],
      "min": [
        -0.9999999403953552,
        -1.0,
        -1.0
      ],
      "type": "VEC3"
    },
    {
      "bufferView": 1,
      "byteOffset": 14679168,
      "componentType": 5126,
      "count": 65532,
      "max": [
        0.951171875,
        0.99267578125
      ],
      "min": [
        0.016357421875,
        0.00244140625
      ],
      "type": "VEC2"
    },
    {
      "bufferView": 1,
      "byteOffset": 15203424,
      "componentType": 5126,
      "count": 65532,
      "max": [
        0.951171875,
        0.99267578125
      ],
      "min": [
        0.016357421875,
        0.00244140625
      ],
      "type": "VEC2"
    },
    {
      "bufferView": 1,
      "byteOffset": 15727680,
      "componentType": 5126,
      "count": 65532,
      "max": [
        0.951171875,
        0.99267578125
      ],
      "min": [
        0.016357421875,
        0.00244140625
      ],
      "type": "VEC2"
    },
    {
      "bufferView": 1,
      "byteOffset": 16251936,
      "componentType": 5126,
      "count": 65532,
      "max": [
        0.951171875,
        0.99267578125
      ],
      "min": [
        0.016357421875,
        0.00244140625
      ],
      "type": "VEC2"
    },
    {
      "bufferView": 0,
      "byteOffset": 9797964,
      "componentType": 5125,
      "count": 344535,
      "type": "SCALAR"
    },
    {
      "bufferView": 2,
      "byteOffset": 12582144,
      "componentType": 5126,
      "count": 41436,
      "max": [
        0.337158203125,
        0.12056732177734375,
        0.41107177734375
      ],
      "min": [
        -0.366455078125,
        -0.496673583984375,
        -0.030717849731445313
      ],
      "type": "VEC3"
    },
    {
      "bufferView": 2,
      "byteOffset": 13079376,
      "componentType": 5126,
      "count": 41436,
      "max": [
        0.9990547895431519,
        0.8100044131278992,
        0.9998316168785095
      ],
      "min": [
        -0.9908215999603271,
        -0.9984815716743469,
        -1.0
      ],
      "type": "VEC3"
    },
    {
      "bufferView": 1,
      "byteOffset": 16776192,
      "componentType": 5126,
      "count": 41436,
      "max": [
        0.9560546875,
        0.999755859375
      ],
      "min": [
        0.08056640625,
        0.018798828125
      ],
      "type": "VEC2"
    },
    {
      "bufferView": 1,
      "byteOffset": 17107680,
      "componentType": 5126,
      "count": 41436,
      "max": [
        0.9560546875,
        0.999755859375
      ],
      "min": [
        0.08056640625,
        0.018798828125
      ],
      "type": "VEC2"
    },
    {
      "bufferView": 1,
      "byteOffset": 17439168,
      "componentType": 5126,
      "count": 41436,
      "max": [
        0.9560546875,
        0.999755859375
      ],
      "min": [
        0.08056640625,
        0.018798828125
      ],
      "type": "VEC2"
    },
    {
      "bufferView": 1,
      "byteOffset": 17770656,
      "componentType": 5126,
      "count": 41436,
      "max": [
        0.9560546875,
        0.999755859375
      ],
      "min": [
        0.08056640625,
        0.018798828125
      ],
      "type": "VEC2"
    },
    {
      "bufferView": 0,
      "byteOffset": 11176104,
      "componentType": 5125,
      "count": 206064,
      "type": "SCALAR"
    }
  ],
  "asset": {
    "extras": {
      "author": "Yang (https://sketchfab.com/bluepaint0218)",
      "license": "CC-BY-4.0 (http://creativecommons.org/licenses/by/4.0/)",
      "source": "https://sketchfab.com/3d-models/chiikwa-hachiware-ab6d8250b25d470eab186d86ddfbcc05",
      "title": "Chiikwa Hachiware"
    },
    "generator": "Sketchfab-16.85.0",
    "version": "2.0"
  },
  "bufferViews": [
    {
      "buffer": 0,
      "byteLength": 12000360,
      "name": "floatBufferViews",
      "target": 34963
    },
    {
      "buffer": 0,
      "byteLength": 18102144,
      "byteOffset": 12000360,
      "byteStride": 8,
      "name": "floatBufferViews",
      "target": 34962
    },
    {
      "buffer": 0,
      "byteLength": 13576608,
      "byteOffset": 30102504,
      "byteStride": 12,
      "name": "floatBufferViews",
      "target": 34962
    }
  ],
  "buffers": [
    {
      "byteLength": 43679112,
      "uri": "scene.bin"
    }
  ],
  "extensionsUsed": [
    "KHR_materials_unlit"
  ],
  "images": [
    {
      "uri": "textures/tripo_mat_41c48549-a160-4baf-875a-12e6d30cf2db_baseColor.jpeg"
    }
  ],
  "materials": [
    {
      "extensions": {
        "KHR_materials_unlit": {}
      },
      "name": "tripo_mat_41c48549-a160-4baf-875a-12e6d30cf2db",
      "pbrMetallicRoughness": {
        "baseColorTexture": {
          "index": 0
        },
        "metallicFactor": 0.0
      }
    }
  ],
  "meshes": [
    {
      "name": "Object_0",
      "primitives": [
        {
          "attributes": {
            "NORMAL": 1,
            "POSITION": 0,
            "TEXCOORD_0": 2,
            "TEXCOORD_1": 3,
            "TEXCOORD_2": 4,
            "TEXCOORD_3": 5
          },
          "indices": 6,
          "material": 0,
          "mode": 4
        }
      ]
    },
    {
      "name": "Object_1",
      "primitives": [
        {
          "attributes": {
            "NORMAL": 8,
            "POSITION": 7,
            "TEXCOORD_0": 9,
            "TEXCOORD_1": 10,
            "TEXCOORD_2": 11,
            "TEXCOORD_3": 12
          },
          "indices": 13,
          "material": 0,
          "mode": 4
        }
      ]
    },
    {
      "name": "Object_2",
      "primitives": [
        {
          "attributes": {
            "NORMAL": 15,
            "POSITION": 14,
            "TEXCOORD_0": 16,
            "TEXCOORD_1": 17,
            "TEXCOORD_2": 18,
            "TEXCOORD_3": 19
          },
          "indices": 20,
          "material": 0,
          "mode": 4
        }
      ]
    },
    {
      "name": "Object_3",
      "primitives": [
        {
          "attributes": {
            "NORMAL": 22,
            "POSITION": 21,
            "TEXCOORD_0": 23,
            "TEXCOORD_1": 24,
            "TEXCOORD_2": 25,
            "TEXCOORD_3": 26
          },
          "indices": 27,
          "material": 0,
          "mode": 4
        }
      ]
    },
    {
      "name": "Object_4",
      "primitives": [
        {
          "attributes": {
            "NORMAL": 29,
            "POSITION": 28,
            "TEXCOORD_0": 30,
            "TEXCOORD_1": 31,
            "TEXCOORD_2": 32,
            "TEXCOORD_3": 33
          },
          "indices": 34,
          "material": 0,
          "mode": 4
        }
      ]
    },
    {
      "name": "Object_5",
      "primitives": [
        {
          "attributes": {
            "NORMAL": 36,
            "POSITION": 35,
            "TEXCOORD_0": 37,
            "TEXCOORD_1": 38,
            "TEXCOORD_2": 39,
            "TEXCOORD_3": 40
          },
          "indices": 41,
          "material": 0,
          "mode": 4
        }
      ]
    },
    {
      "name": "Object_6",
      "primitives": [
        {
          "attributes": {
            "NORMAL": 43,
            "POSITION": 42,
            "TEXCOORD_0": 44,
            "TEXCOORD_1": 45,
            "TEXCOORD_2": 46,
            "TEXCOORD_3": 47
          },
          "indices": 48,
          "material": 0,
          "mode": 4
        }
      ]
    },
    {
      "name": "Object_7",
      "primitives": [
        {
          "attributes": {
            "NORMAL": 50,
            "POSITION": 49,
            "TEXCOORD_0": 51,
            "TEXCOORD_1": 52,
            "TEXCOORD_2": 53,
            "TEXCOORD_3": 54
          },
          "indices": 55,
          "material": 0,
          "mode": 4
        }
      ]
    },
    {
      "name": "Object_8",
      "primitives": [
        {
          "attributes": {
            "NORMAL": 57,
            "POSITION": 56,
            "TEXCOORD_0": 58,
            "TEXCOORD_1": 59,
            "TEXCOORD_2": 60,
            "TEXCOORD_3": 61
          },
          "indices": 62,
          "material": 0,
          "mode": 4
        }
      ]
    }
  ],
  "nodes": [
    {
      "children": [
        1
      ],
      "matrix": [
        1.0,
        0.0,
        0.0,
        0.0,
        0.0,
        2.220446049250313e-16,
        -1.0,
        0.0,
        0.0,
        1.0,
        2.220446049250313e-16,
        0.0,
        0.0,
        0.0,
        0.0,
        1.0
      ],
      "name": "Sketchfab_model"
    },
    {
      "children": [
        2
      ],
      "name": "root"
    },
    {
      "children": [
        3
      ],
      "matrix": [
        1.0,
        0.0,
        0.0,
        0.0,
        0.0,
        2.220446049250313e-16,
        1.0,
        0.0,
        0.0,
        -1.0,
        2.220446049250313e-16,
        0.0,
        0.0,
        0.0,
        0.0,
        1.0
      ],
      "name": "GLTF_SceneRootNode"
    },
    {
      "children": [
        4,
        5,
        6,
        7,
        8,
        9,
        10,
        11,
        12
      ],
      "name": "tripo_node_41c48549-a160-4baf-875a-12e6d30cf2db_0"
    },
    {
      "mesh": 0,
      "name": "Object_4"
    },
    {
      "mesh": 1,
      "name": "Object_5"
    },
    {
      "mesh": 2,
      "name": "Object_6"
    },
    {
      "mesh": 3,
      "name": "Object_7"
    },
    {
      "mesh": 4,
      "name": "Object_8"
    },
    {
      "mesh": 5,
      "name": "Object_9"
    },
    {
      "mesh": 6,
      "name": "Object_10"
    },
    {
      "mesh": 7,
      "name": "Object_11"
    },
    {
      "mesh": 8,
      "name": "Object_12"
    }
  ],
  "samplers": [
    {
      "magFilter": 9729,
      "minFilter": 9987,
      "wrapS": 10497,
      "wrapT": 10497
    }
  ],
  "scene": 0,
  "scenes": [
    {
      "name": "Sketchfab_Scene",
      "nodes": [
        0
      ]
    }
  ],
  "textures": [
    {
      "sampler": 0,
      "source": 0
    }
  ]
}
