{
  "accessors": [
    {
      "bufferView": 2,
      "componentType": 5126,
      "count": 946,
      "max": [
        1.007272720336914,
        0.6674827337265015,
        1.9797028303146362
      ],
      "min": [
        -1.007272720336914,
        -0.30590516328811646,
        -2.327634811401367
      ],
      "type": "VEC3"
    },
    {
      "bufferView": 2,
      "byteOffset": 11352,
      "componentType": 5126,
      "count": 946,
      "max": [
        1.0,
        0.9998325109481812,
        0.9993962645530701
      ],
      "min": [
        -1.0,
        -1.0,
        -0.9986426830291748
      ],
      "type": "VEC3"
    },
    {
      "bufferView": 1,
      "componentType": 5126,
      "count": 946,
      "max": [
        0.9805245399475098,
        0.9215752482414246
      ],
      "min": [
        0.10583353787660599,
        0.33169621229171753
      ],
      "type": "VEC2"
    },
    {
      "bufferView": 0,
      "componentType": 5125,
      "count": 2472,
      "type": "SCALAR"
    },
    {
      "bufferView": 2,
      "byteOffset": 22704,
      "componentType": 5126,
      "count": 28,
      "max": [
        0.7478384971618652,
        0.164436474442482,
        1.7463542222976685
      ],
      "min": [
        -0.7478383779525757,
        0.025404347106814384,
        1.3812025785446167
      ],
      "type": "VEC3"
    },
    {
      "bufferView": 2,
      "byteOffset": 23040,
      "componentType": 5126,
      "count": 28,
      "max": [
        0.24239018559455872,
        0.9290920495986938,
        0.6262167692184448
      ],
      "min": [
        -0.242390438914299,
        0.7410123944282532,
        0.33726850152015686
      ],
      "type": "VEC3"
    },
    {
      "bufferView": 1,
      "byteOffset": 7568,
      "componentType": 5126,
      "count": 28,
      "max": [
        0.36172765493392944,
        0.5526314377784729
      ],
      "min": [
        0.3593043386936188,
        0.5490255951881409
      ],
      "type": "VEC2"
    },
    {
      "bufferView": 0,
      "byteOffset": 9888,
      "componentType": 5125,
      "count": 48,
      "type": "SCALAR"
    },
    {
      "bufferView": 2,
      "byteOffset": 23376,
      "componentType": 5126,
      "count": 97,
      "max": [
        0.9977167248725891,
        0.6386908888816833,
        1.1904242038726807
      ],
      "min": [
        -0.9977167248725891,
        0.2996334731578827,
        -1.1983237266540527
      ],
      "type": "VEC3"
    },
    {
      "bufferView": 2,
      "byteOffset": 24540,
      "componentType": 5126,
      "count": 97,
      "max": [
        0.9024844169616699,
        0.9713523983955383,
        0.3671531081199646
      ],
      "min": [
        -0.9024844169616699,
        -0.27317821979522705,
        -0.9939022660255432
      ],
      "type": "VEC3"
    },
    {
      "bufferView": 1,
      "byteOffset": 7792,
      "componentType": 5126,
      "count": 97,
      "max": [
        0.3578763008117676,
        0.5521628856658936
      ],
      "min": [
        0.33702173829078674,
        0.5143955945968628
      ],
      "type": "VEC2"
    },
    {
      "bufferView": 0,
      "byteOffset": 10080,
      "componentType": 5125,
      "count": 276,
      "type": "SCALAR"
    },
    {
      "bufferView": 2,
      "byteOffset": 25704,
      "componentType": 5126,
      "count": 382,
      "max": [
        1.007272720336914,
        0.6443320512771606,
        1.7768757343292236
      ],
      "min": [
        -1.007272720336914,
        0.016234979033470154,
        -1.2266526222229004
      ],
      "type": "VEC3"
    },
    {
      "bufferView": 2,
      "byteOffset": 30288,
      "componentType": 5126,
      "count": 382,
      "max": [
        0.9499728679656982,
        0.9999614953994751,
        0.9847882986068726
      ],
      "min": [
        -0.9499724507331848,
        -0.9999829530715942,
        -0.9847881197929382
      ],
      "type": "VEC3"
    },
    {
      "bufferView": 1,
      "byteOffset": 8568,
      "componentType": 5126,
      "count": 382,
      "max": [
        0.3617277145385742,
        0.5526314973831177
      ],
      "min": [
        0.33858442306518555,
        0.514245331287384
      ],
      "type": "VEC2"
    },
    {
      "bufferView": 0,
      "byteOffset": 11184,
      "componentType": 5125,
      "count": 894,
      "type": "SCALAR"
    },
    {
      "bufferView": 2,
      "byteOffset": 34872,
      "componentType": 5126,
      "count": 495,
      "max": [
        0.8956395387649536,
        0.5391929149627686,
        1.937397837638855
      ],
      "min": [
        -0.8956395387649536,
        -0.30590516328811646,
        -2.2945711612701416
      ],
      "type": "VEC3"
    },
    {
      "bufferView": 2,
      "byteOffset": 40812,
      "componentType": 5126,
      "count": 495,
      "max": [
        1.0,
        1.0,
        1.0
      ],
      "min": [
        -1.0,
        -1.0,
        -1.0
      ],
      "type": "VEC3"
    },
    {
      "bufferView": 1,
      "byteOffset": 11624,
      "componentType": 5126,
      "count": 495,
      "max": [
        0.3370217978954315,
        0.574763834476471
      ],
      "min": [
        0.274007648229599,
        0.478053480386734
      ],
      "type": "VEC2"
    },
    {
      "bufferView": 0,
      "byteOffset": 14760,
      "componentType": 5125,
      "count": 1224,
      "type": "SCALAR"
    },
    {
      "bufferView": 2,
      "byteOffset": 46752,
      "componentType": 5126,
      "count": 12,
      "max": [
        0.7400214672088623,
        0.380137175321579,
        -2.0366458892822266
      ],
      "min": [
        -0.7400217056274414,
        0.2587248682975769,
        -2.2020061016082764
      ],
      "type": "VEC3"
    },
    {
      "bufferView": 2,
      "byteOffset": 46896,
      "componentType": 5126,
      "count": 12,
      "max": [
        0.4010039269924164,
        0.29373353719711304,
        -0.8783935904502869
      ],
      "min": [
        -0.4010034203529358,
        0.05790765956044197,
        -0.9568780660629272
      ],
      "type": "VEC3"
    },
    {
      "bufferView": 1,
      "byteOffset": 15584,
      "componentType": 5126,
      "count": 12,
      "max": [
        0.3351899981498718,
        0.5514797568321228
      ],
      "min": [
        0.3314457833766937,
        0.5466545820236206
      ],
      "type": "VEC2"
    },
    {
      "bufferView": 0,
      "byteOffset": 19656,
      "componentType": 5125,
      "count": 24,
      "type": "SCALAR"
    },
    {
      "bufferView": 2,
      "byteOffset": 47040,
      "componentType": 5126,
      "count": 254,
      "max": [
        0.9080930948257446,
        -0.1583363115787506,
        1.9797028303146362
      ],
      "min": [
        -0.9080931544303894,
        -0.30590516328811646,
        -2.2473907470703125
      ],
      "type": "VEC3"
    },
    {
      "bufferView": 2,
      "byteOffset": 50088,
      "componentType": 5126,
      "count": 254,
      "max": [
        1.0,
        1.0,
        0.8974270820617676
      ],
      "min": [
        -1.0,
        -0.9225853085517883,
        -0.9176965355873108
      ],
      "type": "VEC3"
    },
    {
      "bufferView": 1,
      "byteOffset": 15680,
      "componentType": 5126,
      "count": 254,
      "max": [
        0.3231087923049927,
        0.5788760185241699
      ],
      "min": [
        0.274007648229599,
        0.478053480386734
      ],
      "type": "VEC2"
    },
    {
      "bufferView": 0,
      "byteOffset": 19752,
      "componentType": 5125,
      "count": 540,
      "type": "SCALAR"
    },
    {
      "bufferView": 2,
      "byteOffset": 53136,
      "componentType": 5126,
      "count": 24,
      "max": [
        0.7366975545883179,
        0.2753366231918335,
        -2.064842700958252
      ],
      "min": [
        -0.736697793006897,
        0.23825281858444214,
        -2.2082138061523438
      ],
      "type": "VEC3"
    },
    {
      "bufferView": 2,
      "byteOffset": 53424,
      "componentType": 5126,
      "count": 24,
      "max": [
        0.38345378637313843,
        0.2972553074359894,
        -0.2903054356575012
      ],
      "min": [
        -0.38345348834991455,
        -0.9540565609931946,
        -0.9484580159187317
      ],
      "type": "VEC3"
    },
    {
      "bufferView": 1,
      "byteOffset": 17712,
      "componentType": 5126,
      "count": 24,
      "max": [
        0.3314833343029022,
        0.551433801651001
      ],
      "min": [
        0.3308408856391907,
        0.5465776324272156
      ],
      "type": "VEC2"
    },
    {
      "bufferView": 0,
      "byteOffset": 21912,
      "componentType": 5125,
      "count": 48,
      "type": "SCALAR"
    },
    {
      "bufferView": 2,
      "byteOffset": 53712,
      "componentType": 5126,
      "count": 480,
      "max": [
        0.6578752994537354,
        -0.05534227192401886,
        -2.048362970352173
      ],
      "min": [
        -0.6578755378723145,
        -0.15017373859882355,
        -2.161726713180542
      ],
      "type": "VEC3"
    },
    {
      "bufferView": 2,
      "byteOffset": 59472,
      "componentType": 5126,
      "count": 480,
      "max": [
        0.9999847412109375,
        0.9853517413139343,
        0.006142760626971722
      ],
      "min": [
        -0.9999846816062927,
        -0.9853518009185791,
        -0.9999910593032837
      ],
      "type": "VEC3"
    },
    {
      "bufferView": 1,
      "byteOffset": 17904,
      "componentType": 5126,
      "count": 480,
      "max": [
        0.3748301565647125,
        0.5788760185241699
      ],
      "min": [
        0.274007648229599,
        0.47906172275543213
      ],
      "type": "VEC2"
    },
    {
      "bufferView": 0,
      "byteOffset": 22104,
      "componentType": 5125,
      "count": 1296,
      "type": "SCALAR"
    },
    {
      "bufferView": 2,
      "byteOffset": 65232,
      "componentType": 5126,
      "count": 8,
      "max": [
        0.777806282043457,
        0.18445327877998352,
        1.7768757343292236
      ],
      "min": [
        -0.7778061628341675,
        0.016234979033470154,
        1.387243390083313
      ],
      "type": "VEC3"
    },
    {
      "bufferView": 2,
      "byteOffset": 65328,
      "componentType": 5126,
      "count": 8,
      "max": [
        0.1671013981103897,
        0.8622124791145325,
        0.4781913459300995
      ],
      "min": [
        -0.1671014279127121,
        0.8622124195098877,
        0.4781911373138428
      ],
      "type": "VEC3"
    },
    {
      "bufferView": 1,
      "byteOffset": 21744,
      "componentType": 5126,
      "count": 8,
      "max": [
        0.8700438141822815,
        0.7396950721740723
      ],
      "min": [
        0.8460079431533813,
        0.7039309740066528
      ],
      "type": "VEC2"
    },
    {
      "bufferView": 0,
      "byteOffset": 27288,
      "componentType": 5125,
      "count": 12,
      "type": "SCALAR"
    },
    {
      "bufferView": 2,
      "byteOffset": 65424,
      "componentType": 5126,
      "count": 222,
      "max": [
        0.11275114864110947,
        0.32432660460472107,
        0.3210253119468689
      ],
      "min": [
        -0.11011574417352676,
        -0.32432660460472107,
        -0.3210252821445465
      ],
      "type": "VEC3"
    },
    {
      "bufferView": 2,
      "byteOffset": 68088,
      "componentType": 5126,
      "count": 222,
      "max": [
        0.9993022084236145,
        0.9295329451560974,
        0.9200717806816101
      ],
      "min": [
        -0.9316940903663635,
        -0.9295331239700317,
        -0.9200717210769653
      ],
      "type": "VEC3"
    },
    {
      "bufferView": 1,
      "byteOffset": 21808,
      "componentType": 5126,
      "count": 222,
      "max": [
        1.0,
        1.0
      ],
      "min": [
        -2.682209014892578e-07,
        0.01000000536441803
      ],
      "type": "VEC2"
    },
    {
      "bufferView": 0,
      "byteOffset": 27336,
      "componentType": 5125,
      "count": 732,
      "type": "SCALAR"
    },
    {
      "bufferView": 2,
      "byteOffset": 70752,
      "componentType": 5126,
      "count": 511,
      "max": [
        0.11275113373994827,
        0.24302475154399872,
        0.24055106937885284
      ],
      "min": [
        0.031186548992991447,
        -0.2430248111486435,
        -0.24055103957653046
      ],
      "type": "VEC3"
    },
    {
      "bufferView": 2,
      "byteOffset": 76884,
      "componentType": 5126,
      "count": 511,
      "max": [
        1.0,
        1.0,
        0.9992724061012268
      ],
      "min": [
        -0.5187559723854065,
        -1.0,
        -0.9992631673812866
      ],
      "type": "VEC3"
    },
    {
      "bufferView": 1,
      "byteOffset": 23584,
      "componentType": 5126,
      "count": 511,
      "max": [
        0.4359504282474518,
        0.4378628134727478
      ],
      "min": [
        0.0,
        0.0
      ],
      "type": "VEC2"
    },
    {
      "bufferView": 0,
      "byteOffset": 30264,
      "componentType": 5125,
      "count": 1536,
      "type": "SCALAR"
    },
    {
      "bufferView": 2,
      "byteOffset": 83016,
      "componentType": 5126,
      "count": 222,
      "max": [
        0.11011574417352676,
        0.32432660460472107,
        0.3210253119468689
      ],
      "min": [
        -0.11275114864110947,
        -0.32432660460472107,
        -0.3210253417491913
      ],
      "type": "VEC3"
    },
    {
      "bufferView": 2,
      "byteOffset": 85680,
      "componentType": 5126,
      "count": 222,
      "max": [
        0.9928718209266663,
        0.9295331835746765,
        0.9200717210769653
      ],
      "min": [
        -0.9316942095756531,
        -0.9295327067375183,
        -0.9200717210769653
      ],
      "type": "VEC3"
    },
    {
      "bufferView": 1,
      "byteOffset": 27672,
      "componentType": 5126,
      "count": 222,
      "max": [
        1.0,
        1.0
      ],
      "min": [
        -2.682209014892578e-07,
        0.01000000536441803
      ],
      "type": "VEC2"
    },
    {
      "bufferView": 0,
      "byteOffset": 36408,
      "componentType": 5125,
      "count": 732,
      "type": "SCALAR"
    },
    {
      "bufferView": 2,
      "byteOffset": 88344,
      "componentType": 5126,
      "count": 511,
      "max": [
        -0.031187493354082108,
        0.24302475154399872,
        0.24055108428001404
      ],
      "min": [
        -0.11275113373994827,
        -0.2430248111486435,
        -0.24055108428001404
      ],
      "type": "VEC3"
    },
    {
      "bufferView": 2,
      "byteOffset": 94476,
      "componentType": 5126,
      "count": 511,
      "max": [
        1.0,
        1.0,
        0.9980669617652893
      ],
      "min": [
        -0.14271152019500732,
        -1.0,
        -0.9980671405792236
      ],
      "type": "VEC3"
    },
    {
      "bufferView": 1,
      "byteOffset": 29448,
      "componentType": 5126,
      "count": 511,
      "max": [
        0.4359504282474518,
        0.4378628134727478
      ],
      "min": [
        0.0,
        0.0
      ],
      "type": "VEC2"
    },
    {
      "bufferView": 0,
      "byteOffset": 39336,
      "componentType": 5125,
      "count": 1536,
      "type": "SCALAR"
    },
    {
      "bufferView": 2,
      "byteOffset": 100608,
      "componentType": 5126,
      "count": 222,
      "max": [
        0.11275114864110947,
        0.32432660460472107,
        0.3210253119468689
      ],
      "min": [
        -0.11011574417352676,
        -0.32432660460472107,
        -0.3210252821445465
      ],
      "type": "VEC3"
    },
    {
      "bufferView": 2,
      "byteOffset": 103272,
      "componentType": 5126,
      "count": 222,
      "max": [
        0.9993022084236145,
        0.9295329451560974,
        0.9200717806816101
      ],
      "min": [
        -0.9316940903663635,
        -0.9295331239700317,
        -0.9200717210769653
      ],
      "type": "VEC3"
    },
    {
      "bufferView": 1,
      "byteOffset": 33536,
      "componentType": 5126,
      "count": 222,
      "max": [
        1.0,
        1.0
      ],
      "min": [
        -2.682209014892578e-07,
        0.01000000536441803
      ],
      "type": "VEC2"
    },
    {
      "bufferView": 0,
      "byteOffset": 45480,
      "componentType": 5125,
      "count": 732,
      "type": "SCALAR"
    },
    {
      "bufferView": 2,
      "byteOffset": 105936,
      "componentType": 5126,
      "count": 511,
      "max": [
        0.11275113373994827,
        0.24302475154399872,
        0.24055106937885284
      ],
      "min": [
        0.03118663839995861,
        -0.2430248111486435,
        -0.24055103957653046
      ],
      "type": "VEC3"
    },
    {
      "bufferView": 2,
      "byteOffset": 112068,
      "componentType": 5126,
      "count": 511,
      "max": [
        1.0,
        1.0,
        0.9992724061012268
      ],
      "min": [
        -0.5187559127807617,
        -1.0,
        -0.9992631673812866
      ],
      "type": "VEC3"
    },
    {
      "bufferView": 1,
      "byteOffset": 35312,
      "componentType": 5126,
      "count": 511,
      "max": [
        0.4359504282474518,
        0.4378628134727478
      ],
      "min": [
        0.0,
        0.0
      ],
      "type": "VEC2"
    },
    {
      "bufferView": 0,
      "byteOffset": 48408,
      "componentType": 5125,
      "count": 1536,
      "type": "SCALAR"
    },
    {
      "bufferView": 2,
      "byteOffset": 118200,
      "componentType": 5126,
      "count": 222,
      "max": [
        0.11011574417352676,
        0.32432660460472107,
        0.3210253119468689
      ],
      "min": [
        -0.11275114864110947,
        -0.32432660460472107,
        -0.3210253417491913
      ],
      "type": "VEC3"
    },
    {
      "bufferView": 2,
      "byteOffset": 120864,
      "componentType": 5126,
      "count": 222,
      "max": [
        0.9928718209266663,
        0.9295331239700317,
        0.9200718402862549
      ],
      "min": [
        -0.9316943287849426,
        -0.9295329451560974,
        -0.9200717210769653
      ],
      "type": "VEC3"
    },
    {
      "bufferView": 1,
      "byteOffset": 39400,
      "componentType": 5126,
      "count": 222,
      "max": [
        1.0,
        1.0
      ],
      "min": [
        -2.682209014892578e-07,
        0.01000000536441803
      ],
      "type": "VEC2"
    },
    {
      "bufferView": 0,
      "byteOffset": 54552,
      "componentType": 5125,
      "count": 732,
      "type": "SCALAR"
    },
    {
      "bufferView": 2,
      "byteOffset": 123528,
      "componentType": 5126,
      "count": 511,
      "max": [
        -0.03118756040930748,
        0.24302475154399872,
        0.24055108428001404
      ],
      "min": [
        -0.11275113373994827,
        -0.2430248111486435,
        -0.24055108428001404
      ],
      "type": "VEC3"
    },
    {
      "bufferView": 2,
      "byteOffset": 129660,
      "componentType": 5126,
      "count": 511,
      "max": [
        1.0,
        1.0,
        0.9980669021606445
      ],
      "min": [
        -0.14271125197410583,
        -1.0,
        -0.9980671405792236
      ],
      "type": "VEC3"
    },
    {
      "bufferView": 1,
      "byteOffset": 41176,
      "componentType": 5126,
      "count": 511,
      "max": [
        0.4359504282474518,
        0.4378628134727478
      ],
      "min": [
        0.0,
        0.0
      ],
      "type": "VEC2"
    },
    {
      "bufferView": 0,
      "byteOffset": 57480,
      "componentType": 5125,
      "count": 1536,
      "type": "SCALAR"
    },
    {
      "bufferView": 2,
      "byteOffset": 135792,
      "componentType": 5126,
      "count": 946,
      "max": [
        1.007272720336914,
        0.6674827337265015,
        1.9797028303146362
      ],
      "min": [
        -1.007272720336914,
        -0.30590516328811646,
        -2.327634811401367
      ],
      "type": "VEC3"
    },
    {
      "bufferView": 2,
      "byteOffset": 147144,
      "componentType": 5126,
      "count": 946,
      "max": [
        1.0,
        0.9998325109481812,
        0.9993962645530701
      ],
      "min": [
        -1.0,
        -1.0,
        -0.9986426830291748
      ],
      "type": "VEC3"
    },
    {
      "bufferView": 1,
      "byteOffset": 45264,
      "componentType": 5126,
      "count": 946,
      "max": [
        0.9805245399475098,
        0.9215752482414246
      ],
      "min": [
        0.10583353787660599,
        0.33169621229171753
      ],
      "type": "VEC2"
    },
    {
      "bufferView": 0,
      "byteOffset": 63624,
      "componentType": 5125,
      "count": 2472,
      "type": "SCALAR"
    },
    {
      "bufferView": 2,
      "byteOffset": 158496,
      "componentType": 5126,
      "count": 28,
      "max": [
        0.7478384971618652,
        0.164436474442482,
        1.7463542222976685
      ],
      "min": [
        -0.7478383779525757,
        0.025404347106814384,
        1.3812025785446167
      ],
      "type": "VEC3"
    },
    {
      "bufferView": 2,
      "byteOffset": 158832,
      "componentType": 5126,
      "count": 28,
      "max": [
        0.24239018559455872,
        0.9290920495986938,
        0.6262167692184448
      ],
      "min": [
        -0.242390438914299,
        0.7410123944282532,
        0.33726850152015686
      ],
      "type": "VEC3"
    },
    {
      "bufferView": 1,
      "byteOffset": 52832,
      "componentType": 5126,
      "count": 28,
      "max": [
        0.36172765493392944,
        0.5526314377784729
      ],
      "min": [
        0.3593043386936188,
        0.5490255951881409
      ],
      "type": "VEC2"
    },
    {
      "bufferView": 0,
      "byteOffset": 73512,
      "componentType": 5125,
      "count": 48,
      "type": "SCALAR"
    },
    {
      "bufferView": 2,
      "byteOffset": 159168,
      "componentType": 5126,
      "count": 97,
      "max": [
        0.9977167248725891,
        0.6386908888816833,
        1.1904242038726807
      ],
      "min": [
        -0.9977167248725891,
        0.2996334731578827,
        -1.1983237266540527
      ],
      "type": "VEC3"
    },
    {
      "bufferView": 2,
      "byteOffset": 160332,
      "componentType": 5126,
      "count": 97,
      "max": [
        0.9024844169616699,
        0.9713523983955383,
        0.3671531081199646
      ],
      "min": [
        -0.9024844169616699,
        -0.27317821979522705,
        -0.9939022660255432
      ],
      "type": "VEC3"
    },
    {
      "bufferView": 1,
      "byteOffset": 53056,
      "componentType": 5126,
      "count": 97,
      "max": [
        0.3578763008117676,
        0.5521628856658936
      ],
      "min": [
        0.33702173829078674,
        0.5143955945968628
      ],
      "type": "VEC2"
    },
    {
      "bufferView": 0,
      "byteOffset": 73704,
      "componentType": 5125,
      "count": 276,
      "type": "SCALAR"
    },
    {
      "bufferView": 2,
      "byteOffset": 161496,
      "componentType": 5126,
      "count": 382,
      "max": [
        1.007272720336914,
        0.6443320512771606,
        1.7768757343292236
      ],
      "min": [
        -1.007272720336914,
        0.016234979033470154,
        -1.2266526222229004
      ],
      "type": "VEC3"
    },
    {
      "bufferView": 2,
      "byteOffset": 166080,
      "componentType": 5126,
      "count": 382,
      "max": [
        0.9499728679656982,
        0.9999614953994751,
        0.9847882986068726
      ],
      "min": [
        -0.9499724507331848,
        -0.9999829530715942,
        -0.9847881197929382
      ],
      "type": "VEC3"
    },
    {
      "bufferView": 1,
      "byteOffset": 53832,
      "componentType": 5126,
      "count": 382,
      "max": [
        0.3617277145385742,
        0.5526314973831177
      ],
      "min": [
        0.33858442306518555,
        0.514245331287384
      ],
      "type": "VEC2"
    },
    {
      "bufferView": 0,
      "byteOffset": 74808,
      "componentType": 5125,
      "count": 894,
      "type": "SCALAR"
    },
    {
      "bufferView": 2,
      "byteOffset": 170664,
      "componentType": 5126,
      "count": 495,
      "max": [
        0.8956395387649536,
        0.5391929149627686,
        1.937397837638855
      ],
      "min": [
        -0.8956395387649536,
        -0.30590516328811646,
        -2.2945711612701416
      ],
      "type": "VEC3"
    },
    {
      "bufferView": 2,
      "byteOffset": 176604,
      "componentType": 5126,
      "count": 495,
      "max": [
        1.0,
        1.0,
        1.0
      ],
      "min": [
        -1.0,
        -1.0,
        -1.0
      ],
      "type": "VEC3"
    },
    {
      "bufferView": 1,
      "byteOffset": 56888,
      "componentType": 5126,
      "count": 495,
      "max": [
        0.3370217978954315,
        0.574763834476471
      ],
      "min": [
        0.274007648229599,
        0.478053480386734
      ],
      "type": "VEC2"
    },
    {
      "bufferView": 0,
      "byteOffset": 78384,
      "componentType": 5125,
      "count": 1224,
      "type": "SCALAR"
    },
    {
      "bufferView": 2,
      "byteOffset": 182544,
      "componentType": 5126,
      "count": 12,
      "max": [
        0.7400214672088623,
        0.380137175321579,
        -2.0366458892822266
      ],
      "min": [
        -0.7400217056274414,
        0.2587248682975769,
        -2.2020061016082764
      ],
      "type": "VEC3"
    },
    {
      "bufferView": 2,
      "byteOffset": 182688,
      "componentType": 5126,
      "count": 12,
      "max": [
        0.4010039269924164,
        0.29373353719711304,
        -0.8783935904502869
      ],
      "min": [
        -0.4010034203529358,
        0.05790765956044197,
        -0.9568780660629272
      ],
      "type": "VEC3"
    },
    {
      "bufferView": 1,
      "byteOffset": 60848,
      "componentType": 5126,
      "count": 12,
      "max": [
        0.3351899981498718,
        0.5514797568321228
      ],
      "min": [
        0.3314457833766937,
        0.5466545820236206
      ],
      "type": "VEC2"
    },
    {
      "bufferView": 0,
      "byteOffset": 83280,
      "componentType": 5125,
      "count": 24,
      "type": "SCALAR"
    },
    {
      "bufferView": 2,
      "byteOffset": 182832,
      "componentType": 5126,
      "count": 254,
      "max": [
        0.9080930948257446,
        -0.1583363115787506,
        1.9797028303146362
      ],
      "min": [
        -0.9080931544303894,
        -0.30590516328811646,
        -2.2473907470703125
      ],
      "type": "VEC3"
    },
    {
      "bufferView": 2,
      "byteOffset": 185880,
      "componentType": 5126,
      "count": 254,
      "max": [
        1.0,
        1.0,
        0.8974270820617676
      ],
      "min": [
        -1.0,
        -0.9225853085517883,
        -0.9176965355873108
      ],
      "type": "VEC3"
    },
    {
      "bufferView": 1,
      "byteOffset": 60944,
      "componentType": 5126,
      "count": 254,
      "max": [
        0.3231087923049927,
        0.5788760185241699
      ],
      "min": [
        0.274007648229599,
        0.478053480386734
      ],
      "type": "VEC2"
    },
    {
      "bufferView": 0,
      "byteOffset": 83376,
      "componentType": 5125,
      "count": 540,
      "type": "SCALAR"
    },
    {
      "bufferView": 2,
      "byteOffset": 188928,
      "componentType": 5126,
      "count": 24,
      "max": [
        0.7366975545883179,
        0.2753366231918335,
        -2.064842700958252
      ],
      "min": [
        -0.736697793006897,
        0.23825281858444214,
        -2.2082138061523438
      ],
      "type": "VEC3"
    },
    {
      "bufferView": 2,
      "byteOffset": 189216,
      "componentType": 5126,
      "count": 24,
      "max": [
        0.38345378637313843,
        0.2972553074359894,
        -0.2903054356575012
      ],
      "min": [
        -0.38345348834991455,
        -0.9540565609931946,
        -0.9484580159187317
      ],
      "type": "VEC3"
    },
    {
      "bufferView": 1,
      "byteOffset": 62976,
      "componentType": 5126,
      "count": 24,
      "max": [
        0.3314833343029022,
        0.551433801651001
      ],
      "min": [
        0.3308408856391907,
        0.5465776324272156
      ],
      "type": "VEC2"
    },
    {
      "bufferView": 0,
      "byteOffset": 85536,
      "componentType": 5125,
      "count": 48,
      "type": "SCALAR"
    },
    {
      "bufferView": 2,
      "byteOffset": 189504,
      "componentType": 5126,
      "count": 480,
      "max": [
        0.6578752994537354,
        -0.05534227192401886,
        -2.048362970352173
      ],
      "min": [
        -0.6578755378723145,
        -0.15017373859882355,
        -2.161726713180542
      ],
      "type": "VEC3"
    },
    {
      "bufferView": 2,
      "byteOffset": 195264,
      "componentType": 5126,
      "count": 480,
      "max": [
        0.9999847412109375,
        0.9853517413139343,
        0.006142760626971722
      ],
      "min": [
        -0.9999846816062927,
        -0.9853518009185791,
        -0.9999910593032837
      ],
      "type": "VEC3"
    },
    {
      "bufferView": 1,
      "byteOffset": 63168,
      "componentType": 5126,
      "count": 480,
      "max": [
        0.3748301565647125,
        0.5788760185241699
      ],
      "min": [
        0.274007648229599,
        0.47906172275543213
      ],
      "type": "VEC2"
    },
    {
      "bufferView": 0,
      "byteOffset": 85728,
      "componentType": 5125,
      "count": 1296,
      "type": "SCALAR"
    },
    {
      "bufferView": 2,
      "byteOffset": 201024,
      "componentType": 5126,
      "count": 8,
      "max": [
        0.777806282043457,
        0.18445327877998352,
        1.7768757343292236
      ],
      "min": [
        -0.7778061628341675,
        0.016234979033470154,
        1.387243390083313
      ],
      "type": "VEC3"
    },
    {
      "bufferView": 2,
      "byteOffset": 201120,
      "componentType": 5126,
      "count": 8,
      "max": [
        0.1671013981103897,
        0.8622124791145325,
        0.4781913459300995
      ],
      "min": [
        -0.1671014279127121,
        0.8622124195098877,
        0.4781911373138428
      ],
      "type": "VEC3"
    },
    {
      "bufferView": 1,
      "byteOffset": 67008,
      "componentType": 5126,
      "count": 8,
      "max": [
        0.8700438141822815,
        0.7396950721740723
      ],
      "min": [
        0.8460079431533813,
        0.7039309740066528
      ],
      "type": "VEC2"
    },
    {
      "bufferView": 0,
      "byteOffset": 90912,
      "componentType": 5125,
      "count": 12,
      "type": "SCALAR"
    },
    {
      "bufferView": 2,
      "byteOffset": 201216,
      "componentType": 5126,
      "count": 222,
      "max": [
        0.11275114864110947,
        0.32432660460472107,
        0.3210253119468689
      ],
      "min": [
        -0.11011574417352676,
        -0.32432660460472107,
        -0.3210252821445465
      ],
      "type": "VEC3"
    },
    {
      "bufferView": 2,
      "byteOffset": 203880,
      "componentType": 5126,
      "count": 222,
      "max": [
        0.9993022084236145,
        0.9295329451560974,
        0.9200717806816101
      ],
      "min": [
        -0.9316940903663635,
        -0.9295331239700317,
        -0.9200717210769653
      ],
      "type": "VEC3"
    },
    {
      "bufferView": 1,
      "byteOffset": 67072,
      "componentType": 5126,
      "count": 222,
      "max": [
        1.0,
        1.0
      ],
      "min": [
        -2.682209014892578e-07,
        0.01000000536441803
      ],
      "type": "VEC2"
    },
    {
      "bufferView": 0,
      "byteOffset": 90960,
      "componentType": 5125,
      "count": 732,
      "type": "SCALAR"
    },
    {
      "bufferView": 2,
      "byteOffset": 206544,
      "componentType": 5126,
      "count": 511,
      "max": [
        0.11275113373994827,
        0.24302475154399872,
        0.24055106937885284
      ],
      "min": [
        0.031186548992991447,
        -0.2430248111486435,
        -0.24055103957653046
      ],
      "type": "VEC3"
    },
    {
      "bufferView": 2,
      "byteOffset": 212676,
      "componentType": 5126,
      "count": 511,
      "max": [
        1.0,
        1.0,
        0.9992724061012268
      ],
      "min": [
        -0.5187559723854065,
        -1.0,
        -0.9992631673812866
      ],
      "type": "VEC3"
    },
    {
      "bufferView": 1,
      "byteOffset": 68848,
      "componentType": 5126,
      "count": 511,
      "max": [
        0.4359504282474518,
        0.4378628134727478
      ],
      "min": [
        0.0,
        0.0
      ],
      "type": "VEC2"
    },
    {
      "bufferView": 0,
      "byteOffset": 93888,
      "componentType": 5125,
      "count": 1536,
      "type": "SCALAR"
    },
    {
      "bufferView": 2,
      "byteOffset": 218808,
      "componentType": 5126,
      "count": 222,
      "max": [
        0.11011574417352676,
        0.32432660460472107,
        0.3210253119468689
      ],
      "min": [
        -0.11275114864110947,
        -0.32432660460472107,
        -0.3210253417491913
      ],
      "type": "VEC3"
    },
    {
      "bufferView": 2,
      "byteOffset": 221472,
      "componentType": 5126,
      "count": 222,
      "max": [
        0.9928718209266663,
        0.9295331835746765,
        0.9200717210769653
      ],
      "min": [
        -0.9316942095756531,
        -0.9295327067375183,
        -0.9200717210769653
      ],
      "type": "VEC3"
    },
    {
      "bufferView": 1,
      "byteOffset": 72936,
      "componentType": 5126,
      "count": 222,
      "max": [
        1.0,
        1.0
      ],
      "min": [
        -2.682209014892578e-07,
        0.01000000536441803
      ],
      "type": "VEC2"
    },
    {
      "bufferView": 0,
      "byteOffset": 100032,
      "componentType": 5125,
      "count": 732,
      "type": "SCALAR"
    },
    {
      "bufferView": 2,
      "byteOffset": 224136,
      "componentType": 5126,
      "count": 511,
      "max": [
        -0.031187493354082108,
        0.24302475154399872,
        0.24055108428001404
      ],
      "min": [
        -0.11275113373994827,
        -0.2430248111486435,
        -0.24055108428001404
      ],
      "type": "VEC3"
    },
    {
      "bufferView": 2,
      "byteOffset": 230268,
      "componentType": 5126,
      "count": 511,
      "max": [
        1.0,
        1.0,
        0.9980669617652893
      ],
      "min": [
        -0.14271152019500732,
        -1.0,
        -0.9980671405792236
      ],
      "type": "VEC3"
    },
    {
      "bufferView": 1,
      "byteOffset": 74712,
      "componentType": 5126,
      "count": 511,
      "max": [
        0.4359504282474518,
        0.4378628134727478
      ],
      "min": [
        0.0,
        0.0
      ],
      "type": "VEC2"
    },
    {
      "bufferView": 0,
      "byteOffset": 102960,
      "componentType": 5125,
      "count": 1536,
      "type": "SCALAR"
    },
    {
      "bufferView": 2,
      "byteOffset": 236400,
      "componentType": 5126,
      "count": 222,
      "max": [
        0.11275114864110947,
        0.32432660460472107,
        0.3210253119468689
      ],
      "min": [
        -0.11011574417352676,
        -0.32432660460472107,
        -0.3210252821445465
      ],
      "type": "VEC3"
    },
    {
      "bufferView": 2,
      "byteOffset": 239064,
      "componentType": 5126,
      "count": 222,
      "max": [
        0.9993022084236145,
        0.9295329451560974,
        0.9200717806816101
      ],
      "min": [
        -0.9316940903663635,
        -0.9295331239700317,
        -0.9200717210769653
      ],
      "type": "VEC3"
    },
    {
      "bufferView": 1,
      "byteOffset": 78800,
      "componentType": 5126,
      "count": 222,
      "max": [
        1.0,
        1.0
      ],
      "min": [
        -2.682209014892578e-07,
        0.01000000536441803
      ],
      "type": "VEC2"
    },
    {
      "bufferView": 0,
      "byteOffset": 109104,
      "componentType": 5125,
      "count": 732,
      "type": "SCALAR"
    },
    {
      "bufferView": 2,
      "byteOffset": 241728,
      "componentType": 5126,
      "count": 511,
      "max": [
        0.11275113373994827,
        0.24302475154399872,
        0.24055106937885284
      ],
      "min": [
        0.03118663839995861,
        -0.2430248111486435,
        -0.24055103957653046
      ],
      "type": "VEC3"
    },
    {
      "bufferView": 2,
      "byteOffset": 247860,
      "componentType": 5126,
      "count": 511,
      "max": [
        1.0,
        1.0,
        0.9992724061012268
      ],
      "min": [
        -0.5187559127807617,
        -1.0,
        -0.9992631673812866
      ],
      "type": "VEC3"
    },
    {
      "bufferView": 1,
      "byteOffset": 80576,
      "componentType": 5126,
      "count": 511,
      "max": [
        0.4359504282474518,
        0.4378628134727478
      ],
      "min": [
        0.0,
        0.0
      ],
      "type": "VEC2"
    },
    {
      "bufferView": 0,
      "byteOffset": 112032,
      "componentType": 5125,
      "count": 1536,
      "type": "SCALAR"
    },
    {
      "bufferView": 2,
      "byteOffset": 253992,
      "componentType": 5126,
      "count": 222,
      "max": [
        0.11011574417352676,
        0.32432660460472107,
        0.3210253119468689
      ],
      "min": [
        -0.11275114864110947,
        -0.32432660460472107,
        -0.3210253417491913
      ],
      "type": "VEC3"
    },
    {
      "bufferView": 2,
      "byteOffset": 256656,
      "componentType": 5126,
      "count": 222,
      "max": [
        0.9928718209266663,
        0.9295331239700317,
        0.9200718402862549
      ],
      "min": [
        -0.9316943287849426,
        -0.9295329451560974,
        -0.9200717210769653
      ],
      "type": "VEC3"
    },
    {
      "bufferView": 1,
      "byteOffset": 84664,
      "componentType": 5126,
      "count": 222,
      "max": [
        1.0,
        1.0
      ],
      "min": [
        -2.682209014892578e-07,
        0.01000000536441803
      ],
      "type": "VEC2"
    },
    {
      "bufferView": 0,
      "byteOffset": 118176,
      "componentType": 5125,
      "count": 732,
      "type": "SCALAR"
    },
    {
      "bufferView": 2,
      "byteOffset": 259320,
      "componentType": 5126,
      "count": 511,
      "max": [
        -0.03118756040930748,
        0.24302475154399872,
        0.24055108428001404
      ],
      "min": [
        -0.11275113373994827,
        -0.2430248111486435,
        -0.24055108428001404
      ],
      "type": "VEC3"
    },
    {
      "bufferView": 2,
      "byteOffset": 265452,
      "componentType": 5126,
      "count": 511,
      "max": [
        1.0,
        1.0,
        0.9980669021606445
      ],
      "min": [
        -0.14271125197410583,
        -1.0,
        -0.9980671405792236
      ],
      "type": "VEC3"
    },
    {
      "bufferView": 1,
      "byteOffset": 86440,
      "componentType": 5126,
      "count": 511,
      "max": [
        0.4359504282474518,
        0.4378628134727478
      ],
      "min": [
        0.0,
        0.0
      ],
      "type": "VEC2"
    },
    {
      "bufferView": 0,
      "byteOffset": 121104,
      "componentType": 5125,
      "count": 1536,
      "type": "SCALAR"
    },
    {
      "bufferView": 2,
      "byteOffset": 271584,
      "componentType": 5126,
      "count": 946,
      "max": [
        1.007272720336914,
        0.6674827337265015,
        1.9797028303146362
      ],
      "min": [
        -1.007272720336914,
        -0.30590516328811646,
        -2.327634811401367
      ],
      "type": "VEC3"
    },
    {
      "bufferView": 2,
      "byteOffset": 282936,
      "componentType": 5126,
      "count": 946,
      "max": [
        1.0,
        0.9998325109481812,
        0.9993962645530701
      ],
      "min": [
        -1.0,
        -1.0,
        -0.9986426830291748
      ],
      "type": "VEC3"
    },
    {
      "bufferView": 1,
      "byteOffset": 90528,
      "componentType": 5126,
      "count": 946,
      "max": [
        0.9805245399475098,
        0.9215752482414246
      ],
      "min": [
        0.10583353787660599,
        0.33169621229171753
      ],
      "type": "VEC2"
    },
    {
      "bufferView": 0,
      "byteOffset": 127248,
      "componentType": 5125,
      "count": 2472,
      "type": "SCALAR"
    },
    {
      "bufferView": 2,
      "byteOffset": 294288,
      "componentType": 5126,
      "count": 28,
      "max": [
        0.7478384971618652,
        0.164436474442482,
        1.7463542222976685
      ],
      "min": [
        -0.7478383779525757,
        0.025404347106814384,
        1.3812025785446167
      ],
      "type": "VEC3"
    },
    {
      "bufferView": 2,
      "byteOffset": 294624,
      "componentType": 5126,
      "count": 28,
      "max": [
        0.24239018559455872,
        0.9290920495986938,
        0.6262167692184448
      ],
      "min": [
        -0.242390438914299,
        0.7410123944282532,
        0.33726850152015686
      ],
      "type": "VEC3"
    },
    {
      "bufferView": 1,
      "byteOffset": 98096,
      "componentType": 5126,
      "count": 28,
      "max": [
        0.36172765493392944,
        0.5526314377784729
      ],
      "min": [
        0.3593043386936188,
        0.5490255951881409
      ],
      "type": "VEC2"
    },
    {
      "bufferView": 0,
      "byteOffset": 137136,
      "componentType": 5125,
      "count": 48,
      "type": "SCALAR"
    },
    {
      "bufferView": 2,
      "byteOffset": 294960,
      "componentType": 5126,
      "count": 97,
      "max": [
        0.9977167248725891,
        0.6386908888816833,
        1.1904242038726807
      ],
      "min": [
        -0.9977167248725891,
        0.2996334731578827,
        -1.1983237266540527
      ],
      "type": "VEC3"
    },
    {
      "bufferView": 2,
      "byteOffset": 296124,
      "componentType": 5126,
      "count": 97,
      "max": [
        0.9024844169616699,
        0.9713523983955383,
        0.3671531081199646
      ],
      "min": [
        -0.9024844169616699,
        -0.27317821979522705,
        -0.9939022660255432
      ],
      "type": "VEC3"
    },
    {
      "bufferView": 1,
      "byteOffset": 98320,
      "componentType": 5126,
      "count": 97,
      "max": [
        0.3578763008117676,
        0.5521628856658936
      ],
      "min": [
        0.33702173829078674,
        0.5143955945968628
      ],
      "type": "VEC2"
    },
    {
      "bufferView": 0,
      "byteOffset": 137328,
      "componentType": 5125,
      "count": 276,
      "type": "SCALAR"
    },
    {
      "bufferView": 2,
      "byteOffset": 297288,
      "componentType": 5126,
      "count": 382,
      "max": [
        1.007272720336914,
        0.6443320512771606,
        1.7768757343292236
      ],
      "min": [
        -1.007272720336914,
        0.016234979033470154,
        -1.2266526222229004
      ],
      "type": "VEC3"
    },
    {
      "bufferView": 2,
      "byteOffset": 301872,
      "componentType": 5126,
      "count": 382,
      "max": [
        0.9499728679656982,
        0.9999614953994751,
        0.9847882986068726
      ],
      "min": [
        -0.9499724507331848,
        -0.9999829530715942,
        -0.9847881197929382
      ],
      "type": "VEC3"
    },
    {
      "bufferView": 1,
      "byteOffset": 99096,
      "componentType": 5126,
      "count": 382,
      "max": [
        0.3617277145385742,
        0.5526314973831177
      ],
      "min": [
        0.33858442306518555,
        0.514245331287384
      ],
      "type": "VEC2"
    },
    {
      "bufferView": 0,
      "byteOffset": 138432,
      "componentType": 5125,
      "count": 894,
      "type": "SCALAR"
    },
    {
      "bufferView": 2,
      "byteOffset": 306456,
      "componentType": 5126,
      "count": 495,
      "max": [
        0.8956395387649536,
        0.5391929149627686,
        1.937397837638855
      ],
      "min": [
        -0.8956395387649536,
        -0.30590516328811646,
        -2.2945711612701416
      ],
      "type": "VEC3"
    },
    {
      "bufferView": 2,
      "byteOffset": 312396,
      "componentType": 5126,
      "count": 495,
      "max": [
        1.0,
        1.0,
        1.0
      ],
      "min": [
        -1.0,
        -1.0,
        -1.0
      ],
      "type": "VEC3"
    },
    {
      "bufferView": 1,
      "byteOffset": 102152,
      "componentType": 5126,
      "count": 495,
      "max": [
        0.3370217978954315,
        0.574763834476471
      ],
      "min": [
        0.274007648229599,
        0.478053480386734
      ],
      "type": "VEC2"
    },
    {
      "bufferView": 0,
      "byteOffset": 142008,
      "componentType": 5125,
      "count": 1224,
      "type": "SCALAR"
    },
    {
      "bufferView": 2,
      "byteOffset": 318336,
      "componentType": 5126,
      "count": 12,
      "max": [
        0.7400214672088623,
        0.380137175321579,
        -2.0366458892822266
      ],
      "min": [
        -0.7400217056274414,
        0.2587248682975769,
        -2.2020061016082764
      ],
      "type": "VEC3"
    },
    {
      "bufferView": 2,
      "byteOffset": 318480,
      "componentType": 5126,
      "count": 12,
      "max": [
        0.4010039269924164,
        0.29373353719711304,
        -0.8783935904502869
      ],
      "min": [
        -0.4010034203529358,
        0.05790765956044197,
        -0.9568780660629272
      ],
      "type": "VEC3"
    },
    {
      "bufferView": 1,
      "byteOffset": 106112,
      "componentType": 5126,
      "count": 12,
      "max": [
        0.3351899981498718,
        0.5514797568321228
      ],
      "min": [
        0.3314457833766937,
        0.5466545820236206
      ],
      "type": "VEC2"
    },
    {
      "bufferView": 0,
      "byteOffset": 146904,
      "componentType": 5125,
      "count": 24,
      "type": "SCALAR"
    },
    {
      "bufferView": 2,
      "byteOffset": 318624,
      "componentType": 5126,
      "count": 254,
      "max": [
        0.9080930948257446,
        -0.1583363115787506,
        1.9797028303146362
      ],
      "min": [
        -0.9080931544303894,
        -0.30590516328811646,
        -2.2473907470703125
      ],
      "type": "VEC3"
    },
    {
      "bufferView": 2,
      "byteOffset": 321672,
      "componentType": 5126,
      "count": 254,
      "max": [
        1.0,
        1.0,
        0.8974270820617676
      ],
      "min": [
        -1.0,
        -0.9225853085517883,
        -0.9176965355873108
      ],
      "type": "VEC3"
    },
    {
      "bufferView": 1,
      "byteOffset": 106208,
      "componentType": 5126,
      "count": 254,
      "max": [
        0.3231087923049927,
        0.5788760185241699
      ],
      "min": [
        0.274007648229599,
        0.478053480386734
      ],
      "type": "VEC2"
    },
    {
      "bufferView": 0,
      "byteOffset": 147000,
      "componentType": 5125,
      "count": 540,
      "type": "SCALAR"
    },
    {
      "bufferView": 2,
      "byteOffset": 324720,
      "componentType": 5126,
      "count": 24,
      "max": [
        0.7366975545883179,
        0.2753366231918335,
        -2.064842700958252
      ],
      "min": [
        -0.736697793006897,
        0.23825281858444214,
        -2.2082138061523438
      ],
      "type": "VEC3"
    },
    {
      "bufferView": 2,
      "byteOffset": 325008,
      "componentType": 5126,
      "count": 24,
      "max": [
        0.38345378637313843,
        0.2972553074359894,
        -0.2903054356575012
      ],
      "min": [
        -0.38345348834991455,
        -0.9540565609931946,
        -0.9484580159187317
      ],
      "type": "VEC3"
    },
    {
      "bufferView": 1,
      "byteOffset": 108240,
      "componentType": 5126,
      "count": 24,
      "max": [
        0.3314833343029022,
        0.551433801651001
      ],
      "min": [
        0.3308408856391907,
        0.5465776324272156
      ],
      "type": "VEC2"
    },
    {
      "bufferView": 0,
      "byteOffset": 149160,
      "componentType": 5125,
      "count": 48,
      "type": "SCALAR"
    },
    {
      "bufferView": 2,
      "byteOffset": 325296,
      "componentType": 5126,
      "count": 480,
      "max": [
        0.6578752994537354,
        -0.05534227192401886,
        -2.048362970352173
      ],
      "min": [
        -0.6578755378723145,
        -0.15017373859882355,
        -2.161726713180542
      ],
      "type": "VEC3"
    },
    {
      "bufferView": 2,
      "byteOffset": 331056,
      "componentType": 5126,
      "count": 480,
      "max": [
        0.9999847412109375,
        0.9853517413139343,
        0.006142760626971722
      ],
      "min": [
        -0.9999846816062927,
        -0.9853518009185791,
        -0.9999910593032837
      ],
      "type": "VEC3"
    },
    {
      "bufferView": 1,
      "byteOffset": 108432,
      "componentType": 5126,
      "count": 480,
      "max": [
        0.3748301565647125,
        0.5788760185241699
      ],
      "min": [
        0.274007648229599,
        0.47906172275543213
      ],
      "type": "VEC2"
    },
    {
      "bufferView": 0,
      "byteOffset": 149352,
      "componentType": 5125,
      "count": 1296,
      "type": "SCALAR"
    },
    {
      "bufferView": 2,
      "byteOffset": 336816,
      "componentType": 5126,
      "count": 8,
      "max": [
        0.777806282043457,
        0.18445327877998352,
        1.7768757343292236
      ],
      "min": [
        -0.7778061628341675,
        0.016234979033470154,
        1.387243390083313
      ],
      "type": "VEC3"
    },
    {
      "bufferView": 2,
      "byteOffset": 336912,
      "componentType": 5126,
      "count": 8,
      "max": [
        0.1671013981103897,
        0.8622124791145325,
        0.4781913459300995
      ],
      "min": [
        -0.1671014279127121,
        0.8622124195098877,
        0.4781911373138428
      ],
      "type": "VEC3"
    },
    {
      "bufferView": 1,
      "byteOffset": 112272,
      "componentType": 5126,
      "count": 8,
      "max": [
        0.8700438141822815,
        0.7396950721740723
      ],
      "min": [
        0.8460079431533813,
        0.7039309740066528
      ],
      "type": "VEC2"
    },
    {
      "bufferView": 0,
      "byteOffset": 154536,
      "componentType": 5125,
      "count": 12,
      "type": "SCALAR"
    },
    {
      "bufferView": 2,
      "byteOffset": 337008,
      "componentType": 5126,
      "count": 222,
      "max": [
        0.11275114864110947,
        0.32432660460472107,
        0.3210253119468689
      ],
      "min": [
        -0.11011574417352676,
        -0.32432660460472107,
        -0.3210252821445465
      ],
      "type": "VEC3"
    },
    {
      "bufferView": 2,
      "byteOffset": 339672,
      "componentType": 5126,
      "count": 222,
      "max": [
        0.9993022084236145,
        0.9295329451560974,
        0.9200717806816101
      ],
      "min": [
        -0.9316940903663635,
        -0.9295331239700317,
        -0.9200717210769653
      ],
      "type": "VEC3"
    },
    {
      "bufferView": 1,
      "byteOffset": 112336,
      "componentType": 5126,
      "count": 222,
      "max": [
        1.0,
        1.0
      ],
      "min": [
        -2.682209014892578e-07,
        0.01000000536441803
      ],
      "type": "VEC2"
    },
    {
      "bufferView": 0,
      "byteOffset": 154584,
      "componentType": 5125,
      "count": 732,
      "type": "SCALAR"
    },
    {
      "bufferView": 2,
      "byteOffset": 342336,
      "componentType": 5126,
      "count": 511,
      "max": [
        0.11275113373994827,
        0.24302475154399872,
        0.24055106937885284
      ],
      "min": [
        0.031186548992991447,
        -0.2430248111486435,
        -0.24055103957653046
      ],
      "type": "VEC3"
    },
    {
      "bufferView": 2,
      "byteOffset": 348468,
      "componentType": 5126,
      "count": 511,
      "max": [
        1.0,
        1.0,
        0.9992724061012268
      ],
      "min": [
        -0.5187559723854065,
        -1.0,
        -0.9992631673812866
      ],
      "type": "VEC3"
    },
    {
      "bufferView": 1,
      "byteOffset": 114112,
      "componentType": 5126,
      "count": 511,
      "max": [
        0.4359504282474518,
        0.4378628134727478
      ],
      "min": [
        0.0,
        0.0
      ],
      "type": "VEC2"
    },
    {
      "bufferView": 0,
      "byteOffset": 157512,
      "componentType": 5125,
      "count": 1536,
      "type": "SCALAR"
    },
    {
      "bufferView": 2,
      "byteOffset": 354600,
      "componentType": 5126,
      "count": 222,
      "max": [
        0.11011574417352676,
        0.32432660460472107,
        0.3210253119468689
      ],
      "min": [
        -0.11275114864110947,
        -0.32432660460472107,
        -0.3210253417491913
      ],
      "type": "VEC3"
    },
    {
      "bufferView": 2,
      "byteOffset": 357264,
      "componentType": 5126,
      "count": 222,
      "max": [
        0.9928718209266663,
        0.9295331835746765,
        0.9200717210769653
      ],
      "min": [
        -0.9316942095756531,
        -0.9295327067375183,
        -0.9200717210769653
      ],
      "type": "VEC3"
    },
    {
      "bufferView": 1,
      "byteOffset": 118200,
      "componentType": 5126,
      "count": 222,
      "max": [
        1.0,
        1.0
      ],
      "min": [
        -2.682209014892578e-07,
        0.01000000536441803
      ],
      "type": "VEC2"
    },
    {
      "bufferView": 0,
      "byteOffset": 163656,
      "componentType": 5125,
      "count": 732,
      "type": "SCALAR"
    },
    {
      "bufferView": 2,
      "byteOffset": 359928,
      "componentType": 5126,
      "count": 511,
      "max": [
        -0.031187493354082108,
        0.24302475154399872,
        0.24055108428001404
      ],
      "min": [
        -0.11275113373994827,
        -0.2430248111486435,
        -0.24055108428001404
      ],
      "type": "VEC3"
    },
    {
      "bufferView": 2,
      "byteOffset": 366060,
      "componentType": 5126,
      "count": 511,
      "max": [
        1.0,
        1.0,
        0.9980669617652893
      ],
      "min": [
        -0.14271152019500732,
        -1.0,
        -0.9980671405792236
      ],
      "type": "VEC3"
    },
    {
      "bufferView": 1,
      "byteOffset": 119976,
      "componentType": 5126,
      "count": 511,
      "max": [
        0.4359504282474518,
        0.4378628134727478
      ],
      "min": [
        0.0,
        0.0
      ],
      "type": "VEC2"
    },
    {
      "bufferView": 0,
      "byteOffset": 166584,
      "componentType": 5125,
      "count": 1536,
      "type": "SCALAR"
    },
    {
      "bufferView": 2,
      "byteOffset": 372192,
      "componentType": 5126,
      "count": 222,
      "max": [
        0.11275114864110947,
        0.32432660460472107,
        0.3210253119468689
      ],
      "min": [
        -0.11011574417352676,
        -0.32432660460472107,
        -0.3210252821445465
      ],
      "type": "VEC3"
    },
    {
      "bufferView": 2,
      "byteOffset": 374856,
      "componentType": 5126,
      "count": 222,
      "max": [
        0.9993022084236145,
        0.9295329451560974,
        0.9200717806816101
      ],
      "min": [
        -0.9316940903663635,
        -0.9295331239700317,
        -0.9200717210769653
      ],
      "type": "VEC3"
    },
    {
      "bufferView": 1,
      "byteOffset": 124064,
      "componentType": 5126,
      "count": 222,
      "max": [
        1.0,
        1.0
      ],
      "min": [
        -2.682209014892578e-07,
        0.01000000536441803
      ],
      "type": "VEC2"
    },
    {
      "bufferView": 0,
      "byteOffset": 172728,
      "componentType": 5125,
      "count": 732,
      "type": "SCALAR"
    },
    {
      "bufferView": 2,
      "byteOffset": 377520,
      "componentType": 5126,
      "count": 511,
      "max": [
        0.11275113373994827,
        0.24302475154399872,
        0.24055106937885284
      ],
      "min": [
        0.03118663839995861,
        -0.2430248111486435,
        -0.24055103957653046
      ],
      "type": "VEC3"
    },
    {
      "bufferView": 2,
      "byteOffset": 383652,
      "componentType": 5126,
      "count": 511,
      "max": [
        1.0,
        1.0,
        0.9992724061012268
      ],
      "min": [
        -0.5187559127807617,
        -1.0,
        -0.9992631673812866
      ],
      "type": "VEC3"
    },
    {
      "bufferView": 1,
      "byteOffset": 125840,
      "componentType": 5126,
      "count": 511,
      "max": [
        0.4359504282474518,
        0.4378628134727478
      ],
      "min": [
        0.0,
        0.0
      ],
      "type": "VEC2"
    },
    {
      "bufferView": 0,
      "byteOffset": 175656,
      "componentType": 5125,
      "count": 1536,
      "type": "SCALAR"
    },
    {
      "bufferView": 2,
      "byteOffset": 389784,
      "componentType": 5126,
      "count": 222,
      "max": [
        0.11011574417352676,
        0.32432660460472107,
        0.3210253119468689
      ],
      "min": [
        -0.11275114864110947,
        -0.32432660460472107,
        -0.3210253417491913
      ],
      "type": "VEC3"
    },
    {
      "bufferView": 2,
      "byteOffset": 392448,
      "componentType": 5126,
      "count": 222,
      "max": [
        0.9928718209266663,
        0.9295331239700317,
        0.9200718402862549
      ],
      "min": [
        -0.9316943287849426,
        -0.9295329451560974,
        -0.9200717210769653
      ],
      "type": "VEC3"
    },
    {
      "bufferView": 1,
      "byteOffset": 129928,
      "componentType": 5126,
      "count": 222,
      "max": [
        1.0,
        1.0
      ],
      "min": [
        -2.682209014892578e-07,
        0.01000000536441803
      ],
      "type": "VEC2"
    },
    {
      "bufferView": 0,
      "byteOffset": 181800,
      "componentType": 5125,
      "count": 732,
      "type": "SCALAR"
    },
    {
      "bufferView": 2,
      "byteOffset": 395112,
      "componentType": 5126,
      "count": 511,
      "max": [
        -0.03118756040930748,
        0.24302475154399872,
        0.24055108428001404
      ],
      "min": [
        -0.11275113373994827,
        -0.2430248111486435,
        -0.24055108428001404
      ],
      "type": "VEC3"
    },
    {
      "bufferView": 2,
      "byteOffset": 401244,
      "componentType": 5126,
      "count": 511,
      "max": [
        1.0,
        1.0,
        0.9980669021606445
      ],
      "min": [
        -0.14271125197410583,
        -1.0,
        -0.9980671405792236
      ],
      "type": "VEC3"
    },
    {
      "bufferView": 1,
      "byteOffset": 131704,
      "componentType": 5126,
      "count": 511,
      "max": [
        0.4359504282474518,
        0.4378628134727478
      ],
      "min": [
        0.0,
        0.0
      ],
      "type": "VEC2"
    },
    {
      "bufferView": 0,
      "byteOffset": 184728,
      "componentType": 5125,
      "count": 1536,
      "type": "SCALAR"
    }
  ],
  "asset": {
    "extras": {
      "author": "Han66st (https://sketchfab.com/Han66st)",
      "license": "CC-BY-4.0 (http://creativecommons.org/licenses/by/4.0/)",
      "source": "https://sketchfab.com/3d-models/sport-car-low-poly-5d1253a7eddc4c52a57805c515738902",
      "title": "Sport Car Low Poly"
    },
    "generator": "Sketchfab-16.74.0",
    "version": "2.0"
  },
  "bufferViews": [
    {
      "buffer": 0,
      "byteLength": 190872,
      "name": "floatBufferViews",
      "target": 34963
    },
    {
      "buffer": 0,
      "byteLength": 135792,
      "byteOffset": 190872,
      "byteStride": 8,
      "name": "floatBufferViews",
      "target": 34962
    },
    {
      "buffer": 0,
      "byteLength": 407376,
      "byteOffset": 326664,
      "byteStride": 12,
      "name": "floatBufferViews",
      "target": 34962
    }
  ],
  "buffers": [
    {
      "byteLength": 734040,
      "uri": "scene.bin"
    }
  ],
  "extensionsUsed": [
    "KHR_materials_clearcoat"
  ],
  "materials": [
    {
      "doubleSided": true,
      "name": "Material.008",
      "pbrMetallicRoughness": {
        "baseColorFactor": [
          0.18105900000000008,
          0.609447,
          0.0,
          1.0
        ],
        "roughnessFactor": 0.521739
      }
    },
    {
      "doubleSided": true,
      "emissiveFactor": [
        1.0,
        1.0,
        1.0
      ],
      "name": "Material.009",
      "pbrMetallicRoughness": {
        "baseColorFactor": [
          0.8,
          0.8,
          0.8,
          1.0
        ],
        "metallicFactor": 0.0,
        "roughnessFactor": 0.5
      }
    },
    {
      "name": "Material.002",
      "pbrMetallicRoughness": {
        "baseColorFactor": [
          0.0,
          0.0,
          0.0,
          1.0
        ],
        "metallicFactor": 0.0,
        "roughnessFactor": 0.1
      }
    },
    {
      "doubleSided": true,
      "name": "Material.014",
      "pbrMetallicRoughness": {
        "baseColorFactor": [
          0.0,
          0.0,
          0.0,
          1.0
        ],
        "metallicFactor": 0.0,
        "roughnessFactor": 0.5
      }
    },
    {
      "doubleSided": true,
      "name": "Material.011",
      "pbrMetallicRoughness": {
        "baseColorFactor": [
          0.00489523,
          0.00489523,
          0.00489523,
          1.0
        ],
        "metallicFactor": 0.0,
        "roughnessFactor": 0.924658
      }
    },
    {
      "doubleSided": true,
      "emissiveFactor": [
        1.0,
        0.000849532,
        0.0
      ],
      "name": "Material.001",
      "pbrMetallicRoughness": {
        "baseColorFactor": [
          0.8,
          0.0,
          0.00293192,
          1.0
        ],
        "metallicFactor": 0.0,
        "roughnessFactor": 0.5
      }
    },
    {
      "doubleSided": true,
      "name": "Material.003",
      "pbrMetallicRoughness": {
        "baseColorFactor": [
          0.0080762,
          0.0080762,
          0.0080762,
          1.0
        ],
        "metallicFactor": 0.0,
        "roughnessFactor": 0.5
      }
    },
    {
      "doubleSided": true,
      "name": "Material.004",
      "pbrMetallicRoughness": {
        "baseColorFactor": [
          0.8,
          0.8,
          0.8,
          1.0
        ],
        "metallicFactor": 0.0,
        "roughnessFactor": 0.5
      }
    },
    {
      "doubleSided": true,
      "name": "Material.005",
      "pbrMetallicRoughness": {
        "baseColorFactor": [
          0.303195,
          0.303195,
          0.303195,
          1.0
        ],
        "metallicFactor": 0.0,
        "roughnessFactor": 0.5
      }
    },
    {
      "alphaMode": "BLEND",
      "doubleSided": true,
      "name": "altz.kaca.002",
      "pbrMetallicRoughness": {
        "baseColorFactor": [
          0.429225,
          0.429225,
          0.429225,
          0.03504772585973595
        ],
        "metallicFactor": 0.0,
        "roughnessFactor": 0.0
      }
    },
    {
      "doubleSided": true,
      "name": "Material.006",
      "pbrMetallicRoughness": {
        "baseColorFactor": [
          0.0,
          0.0,
          0.0,
          1.0
        ],
        "metallicFactor": 0.0,
        "roughnessFactor": 0.9
      }
    },
    {
      "doubleSided": true,
      "name": "Material.007",
      "pbrMetallicRoughness": {
        "baseColorFactor": [
          0.0,
          0.0,
          0.0,
          1.0
        ],
        "metallicFactor": 0.43038,
        "roughnessFactor": 0.177215
      }
    },
    {
      "doubleSided": true,
      "name": "Material.016",
      "pbrMetallicRoughness": {
        "baseColorFactor": [
          1.0,
          0.47053,
          0.0,
          1.0
        ],
        "roughnessFactor": 0.521739
      }
    },
    {
      "doubleSided": true,
      "emissiveFactor": [
        1.0,
        1.0,
        1.0
      ],
      "name": "Material.017",
      "pbrMetallicRoughness": {
        "baseColorFactor": [
          0.8,
          0.8,
          0.8,
          1.0
        ],
        "metallicFactor": 0.0,
        "roughnessFactor": 0.5
      }
    },
    {
      "name": "Material.018",
      "pbrMetallicRoughness": {
        "baseColorFactor": [
          0.0,
          0.0,
          0.0,
          1.0
        ],
        "metallicFactor": 0.0,
        "roughnessFactor": 0.1
      }
    },
    {
      "doubleSided": true,
      "name": "Material.019",
      "pbrMetallicRoughness": {
        "baseColorFactor": [
          0.0,
          0.0,
          0.0,
          1.0
        ],
        "metallicFactor": 0.0,
        "roughnessFactor": 0.5
      }
    },
    {
      "doubleSided": true,
      "name": "Material.020",
      "pbrMetallicRoughness": {
        "baseColorFactor": [
          0.00489523,
          0.00489523,
          0.00489523,
          1.0
        ],
        "metallicFactor": 0.0,
        "roughnessFactor": 0.924658
      }
    },
    {
      "doubleSided": true,
      "emissiveFactor": [
        1.0,
        0.000849532,
        0.0
      ],
      "name": "Material.021",
      "pbrMetallicRoughness": {
        "baseColorFactor": [
          0.8,
          0.0,
          0.00293192,
          1.0
        ],
        "metallicFactor": 0.0,
        "roughnessFactor": 0.5
      }
    },
    {
      "doubleSided": true,
      "name": "Material.022",
      "pbrMetallicRoughness": {
        "baseColorFactor": [
          0.0080762,
          0.0080762,
          0.0080762,
          1.0
        ],
        "metallicFactor": 0.0,
        "roughnessFactor": 0.5
      }
    },
    {
      "doubleSided": true,
      "name": "Material.023",
      "pbrMetallicRoughness": {
        "baseColorFactor": [
          0.8,
          0.8,
          0.8,
          1.0
        ],
        "metallicFactor": 0.0,
        "roughnessFactor": 0.5
      }
    },
    {
      "doubleSided": true,
      "name": "Material.024",
      "pbrMetallicRoughness": {
        "baseColorFactor": [
          0.303195,
          0.303195,
          0.303195,
          1.0
        ],
        "metallicFactor": 0.0,
        "roughnessFactor": 0.5
      }
    },
    {
      "alphaMode": "BLEND",
      "doubleSided": true,
      "name": "altz.kaca.001",
      "pbrMetallicRoughness": {
        "baseColorFactor": [
          0.429225,
          0.429225,
          0.429225,
          0.08990503590106179
        ],
        "metallicFactor": 0.0,
        "roughnessFactor": 0.0
      }
    },
    {
      "doubleSided": true,
      "name": "Material.013",
      "pbrMetallicRoughness": {
        "baseColorFactor": [
          0.0,
          0.0,
          0.0,
          1.0
        ],
        "metallicFactor": 0.0,
        "roughnessFactor": 0.9
      }
    },
    {
      "doubleSided": true,
      "name": "Material.015",
      "pbrMetallicRoughness": {
        "baseColorFactor": [
          0.0,
          0.0,
          0.0,
          1.0
        ],
        "metallicFactor": 0.43038,
        "roughnessFactor": 0.177215
      }
    },
    {
      "doubleSided": true,
      "name": "Material.029",
      "pbrMetallicRoughness": {
        "roughnessFactor": 0.521739
      }
    },
    {
      "doubleSided": true,
      "emissiveFactor": [
        1.0,
        1.0,
        1.0
      ],
      "name": "Material.030",
      "pbrMetallicRoughness": {
        "baseColorFactor": [
          0.8,
          0.8,
          0.8,
          1.0
        ],
        "metallicFactor": 0.0,
        "roughnessFactor": 0.5
      }
    },
    {
      "extensions": {
        "KHR_materials_clearcoat": {
          "clearcoatFactor": 1.0,
          "clearcoatRoughnessFactor": 0.04
        }
      },
      "name": "Material.031",
      "pbrMetallicRoughness": {
        "baseColorFactor": [
          0.0,
          0.0,
          0.0,
          1.0
        ],
        "metallicFactor": 0.0,
        "roughnessFactor": 0.1
      }
    },
    {
      "doubleSided": true,
      "name": "Material.032",
      "pbrMetallicRoughness": {
        "baseColorFactor": [
          0.0,
          0.0,
          0.0,
          1.0
        ],
        "metallicFactor": 0.0,
        "roughnessFactor": 0.5
      }
    },
    {
      "doubleSided": true,
      "name": "Material.033",
      "pbrMetallicRoughness": {
        "baseColorFactor": [
          0.00489523,
          0.00489523,
          0.00489523,
          1.0
        ],
        "metallicFactor": 0.0,
        "roughnessFactor": 0.924658
      }
    },
    {
      "doubleSided": true,
      "emissiveFactor": [
        1.0,
        0.000849532,
        0.0
      ],
      "name": "Material.034",
      "pbrMetallicRoughness": {
        "baseColorFactor": [
          0.8,
          0.0,
          0.00293192,
          1.0
        ],
        "metallicFactor": 0.0,
        "roughnessFactor": 0.5
      }
    },
    {
      "doubleSided": true,
      "name": "Material.035",
      "pbrMetallicRoughness": {
        "baseColorFactor": [
          0.0080762,
          0.0080762,
          0.0080762,
          1.0
        ],
        "metallicFactor": 0.0,
        "roughnessFactor": 0.5
      }
    },
    {
      "doubleSided": true,
      "name": "Material.036",
      "pbrMetallicRoughness": {
        "baseColorFactor": [
          0.8,
          0.8,
          0.8,
          1.0
        ],
        "metallicFactor": 0.0,
        "roughnessFactor": 0.5
      }
    },
    {
      "doubleSided": true,
      "name": "Material.037",
      "pbrMetallicRoughness": {
        "baseColorFactor": [
          0.303195,
          0.303195,
          0.303195,
          1.0
        ],
        "metallicFactor": 0.0,
        "roughnessFactor": 0.5
      }
    },
    {
      "alphaMode": "BLEND",
      "doubleSided": true,
      "name": "altz.kaca.003",
      "pbrMetallicRoughness": {
        "baseColorFactor": [
          0.429225,
          0.429225,
          0.429225,
          0.08990503590106179
        ],
        "metallicFactor": 0.0,
        "roughnessFactor": 0.0
      }
    },
    {
      "doubleSided": true,
      "name": "Material.027",
      "pbrMetallicRoughness": {
        "baseColorFactor": [
          0.0,
          0.0,
          0.0,
          1.0
        ],
        "metallicFactor": 0.0,
        "roughnessFactor": 0.9
      }
    },
    {
      "doubleSided": true,
      "name": "Material.028",
      "pbrMetallicRoughness": {
        "baseColorFactor": [
          0.0,
          0.0,
          0.0,
          1.0
        ],
        "metallicFactor": 0.43038,
        "roughnessFactor": 0.177215
      }
    }
  ],
  "meshes": [
    {
      "name": "Object_0",
      "primitives": [
        {
          "attributes": {
            "NORMAL": 1,
            "POSITION": 0,
            "TEXCOORD_0": 2
          },
          "indices": 3,
          "material": 0,
          "mode": 4
        }
      ]
    },
    {
      "name": "Object_1",
      "primitives": [
        {
          "attributes": {
            "NORMAL": 5,
            "POSITION": 4,
            "TEXCOORD_0": 6
          },
          "indices": 7,
          "material": 1,
          "mode": 4
        }
      ]
    },
    {
      "name": "Object_2",
      "primitives": [
        {
          "attributes": {
            "NORMAL": 9,
            "POSITION": 8,
            "TEXCOORD_0": 10
          },
          "indices": 11,
          "material": 2,
          "mode": 4
        }
      ]
    },
    {
      "name": "Object_3",
      "primitives": [
        {
          "attributes": {
            "NORMAL": 13,
            "POSITION": 12,
            "TEXCOORD_0": 14
          },
          "indices": 15,
          "material": 3,
          "mode": 4
        }
      ]
    },
    {
      "name": "Object_4",
      "primitives": [
        {
          "attributes": {
            "NORMAL": 17,
            "POSITION": 16,
            "TEXCOORD_0": 18
          },
          "indices": 19,
          "material": 4,
          "mode": 4
        }
      ]
    },
    {
      "name": "Object_5",
      "primitives": [
        {
          "attributes": {
            "NORMAL": 21,
            "POSITION": 20,
            "TEXCOORD_0": 22
          },
          "indices": 23,
          "material": 5,
          "mode": 4
        }
      ]
    },
    {
      "name": "Object_6",
      "primitives": [
        {
          "attributes": {
            "NORMAL": 25,
            "POSITION": 24,
            "TEXCOORD_0": 26
          },
          "indices": 27,
          "material": 6,
          "mode": 4
        }
      ]
    },
    {
      "name": "Object_7",
      "primitives": [
        {
          "attributes": {
            "NORMAL": 29,
            "POSITION": 28,
            "TEXCOORD_0": 30
          },
          "indices": 31,
          "material": 7,
          "mode": 4
        }
      ]
    },
    {
      "name": "Object_8",
      "primitives": [
        {
          "attributes": {
            "NORMAL": 33,
            "POSITION": 32,
            "TEXCOORD_0": 34
          },
          "indices": 35,
          "material": 8,
          "mode": 4
        }
      ]
    },
    {
      "name": "Object_9",
      "primitives": [
        {
          "attributes": {
            "NORMAL": 37,
            "POSITION": 36,
            "TEXCOORD_0": 38
          },
          "indices": 39,
          "material": 9,
          "mode": 4
        }
      ]
    },
    {
      "name": "Object_10",
      "primitives": [
        {
          "attributes": {
            "NORMAL": 41,
            "POSITION": 40,
            "TEXCOORD_0": 42
          },
          "indices": 43,
          "material": 10,
          "mode": 4
        }
      ]
    },
    {
      "name": "Object_11",
      "primitives": [
        {
          "attributes": {
            "NORMAL": 45,
            "POSITION": 44,
            "TEXCOORD_0": 46
          },
          "indices": 47,
          "material": 11,
          "mode": 4
        }
      ]
    },
    {
      "name": "Object_12",
      "primitives": [
        {
          "attributes": {
            "NORMAL": 49,
            "POSITION": 48,
            "TEXCOORD_0": 50
          },
          "indices": 51,
          "material": 10,
          "mode": 4
        }
      ]
    },
    {
      "name": "Object_13",
      "primitives": [
        {
          "attributes": {
            "NORMAL": 53,
            "POSITION": 52,
            "TEXCOORD_0": 54
          },
          "indices": 55,
          "material": 11,
          "mode": 4
        }
      ]
    },
    {
      "name": "Object_14",
      "primitives": [
        {
          "attributes": {
            "NORMAL": 57,
            "POSITION": 56,
            "TEXCOORD_0": 58
          },
          "indices": 59,
          "material": 10,
          "mode": 4
        }
      ]
    },
    {
      "name": "Object_15",
      "primitives": [
        {
          "attributes": {
            "NORMAL": 61,
            "POSITION": 60,
            "TEXCOORD_0": 62
          },
          "indices": 63,
          "material": 11,
          "mode": 4
        }
      ]
    },
    {
      "name": "Object_16",
      "primitives": [
        {
          "attributes": {
            "NORMAL": 65,
            "POSITION": 64,
            "TEXCOORD_0": 66
          },
          "indices": 67,
          "material": 10,
          "mode": 4
        }
      ]
    },
    {
      "name": "Object_17",
      "primitives": [
        {
          "attributes": {
            "NORMAL": 69,
            "POSITION": 68,
            "TEXCOORD_0": 70
          },
          "indices": 71,
          "material": 11,
          "mode": 4
        }
      ]
    },
    {
      "name": "Object_18",
      "primitives": [
        {
          "attributes": {
            "NORMAL": 73,
            "POSITION": 72,
            "TEXCOORD_0": 74
          },
          "indices": 75,
          "material": 12,
          "mode": 4
        }
      ]
    },
    {
      "name": "Object_19",
      "primitives": [
        {
          "attributes": {
            "NORMAL": 77,
            "POSITION": 76,
            "TEXCOORD_0": 78
          },
          "indices": 79,
          "material": 13,
          "mode": 4
        }
      ]
    },
    {
      "name": "Object_20",
      "primitives": [
        {
          "attributes": {
            "NORMAL": 81,
            "POSITION": 80,
            "TEXCOORD_0": 82
          },
          "indices": 83,
          "material": 14,
          "mode": 4
        }
      ]
    },
    {
      "name": "Object_21",
      "primitives": [
        {
          "attributes": {
            "NORMAL": 85,
            "POSITION": 84,
            "TEXCOORD_0": 86
          },
          "indices": 87,
          "material": 15,
          "mode": 4
        }
      ]
    },
    {
      "name": "Object_22",
      "primitives": [
        {
          "attributes": {
            "NORMAL": 89,
            "POSITION": 88,
            "TEXCOORD_0": 90
          },
          "indices": 91,
          "material": 16,
          "mode": 4
        }
      ]
    },
    {
      "name": "Object_23",
      "primitives": [
        {
          "attributes": {
            "NORMAL": 93,
            "POSITION": 92,
            "TEXCOORD_0": 94
          },
          "indices": 95,
          "material": 17,
          "mode": 4
        }
      ]
    },
    {
      "name": "Object_24",
      "primitives": [
        {
          "attributes": {
            "NORMAL": 97,
            "POSITION": 96,
            "TEXCOORD_0": 98
          },
          "indices": 99,
          "material": 18,
          "mode": 4
        }
      ]
    },
    {
      "name": "Object_25",
      "primitives": [
        {
          "attributes": {
            "NORMAL": 101,
            "POSITION": 100,
            "TEXCOORD_0": 102
          },
          "indices": 103,
          "material": 19,
          "mode": 4
        }
      ]
    },
    {
      "name": "Object_26",
      "primitives": [
        {
          "attributes": {
            "NORMAL": 105,
            "POSITION": 104,
            "TEXCOORD_0": 106
          },
          "indices": 107,
          "material": 20,
          "mode": 4
        }
      ]
    },
    {
      "name": "Object_27",
      "primitives": [
        {
          "attributes": {
            "NORMAL": 109,
            "POSITION": 108,
            "TEXCOORD_0": 110
          },
          "indices": 111,
          "material": 21,
          "mode": 4
        }
      ]
    },
    {
      "name": "Object_28",
      "primitives": [
        {
          "attributes": {
            "NORMAL": 113,
            "POSITION": 112,
            "TEXCOORD_0": 114
          },
          "indices": 115,
          "material": 22,
          "mode": 4
        }
      ]
    },
    {
      "name": "Object_29",
      "primitives": [
        {
          "attributes": {
            "NORMAL": 117,
            "POSITION": 116,
            "TEXCOORD_0": 118
          },
          "indices": 119,
          "material": 23,
          "mode": 4
        }
      ]
    },
    {
      "name": "Object_30",
      "primitives": [
        {
          "attributes": {
            "NORMAL": 121,
            "POSITION": 120,
            "TEXCOORD_0": 122
          },
          "indices": 123,
          "material": 22,
          "mode": 4
        }
      ]
    },
    {
      "name": "Object_31",
      "primitives": [
        {
          "attributes": {
            "NORMAL": 125,
            "POSITION": 124,
            "TEXCOORD_0": 126
          },
          "indices": 127,
          "material": 23,
          "mode": 4
        }
      ]
    },
    {
      "name": "Object_32",
      "primitives": [
        {
          "attributes": {
            "NORMAL": 129,
            "POSITION": 128,
            "TEXCOORD_0": 130
          },
          "indices": 131,
          "material": 22,
          "mode": 4
        }
      ]
    },
    {
      "name": "Object_33",
      "primitives": [
        {
          "attributes": {
            "NORMAL": 133,
            "POSITION": 132,
            "TEXCOORD_0": 134
          },
          "indices": 135,
          "material": 23,
          "mode": 4
        }
      ]
    },
    {
      "name": "Object_34",
      "primitives": [
        {
          "attributes": {
            "NORMAL": 137,
            "POSITION": 136,
            "TEXCOORD_0": 138
          },
          "indices": 139,
          "material": 22,
          "mode": 4
        }
      ]
    },
    {
      "name": "Object_35",
      "primitives": [
        {
          "attributes": {
            "NORMAL": 141,
            "POSITION": 140,
            "TEXCOORD_0": 142
          },
          "indices": 143,
          "material": 23,
          "mode": 4
        }
      ]
    },
    {
      "name": "Object_36",
      "primitives": [
        {
          "attributes": {
            "NORMAL": 145,
            "POSITION": 144,
            "TEXCOORD_0": 146
          },
          "indices": 147,
          "material": 24,
          "mode": 4
        }
      ]
    },
    {
      "name": "Object_37",
      "primitives": [
        {
          "attributes": {
            "NORMAL": 149,
            "POSITION": 148,
            "TEXCOORD_0": 150
          },
          "indices": 151,
          "material": 25,
          "mode": 4
        }
      ]
    },
    {
      "name": "Object_38",
      "primitives": [
        {
          "attributes": {
            "NORMAL": 153,
            "POSITION": 152,
            "TEXCOORD_0": 154
          },
          "indices": 155,
          "material": 26,
          "mode": 4
        }
      ]
    },
    {
      "name": "Object_39",
      "primitives": [
        {
          "attributes": {
            "NORMAL": 157,
            "POSITION": 156,
            "TEXCOORD_0": 158
          },
          "indices": 159,
          "material": 27,
          "mode": 4
        }
      ]
    },
    {
      "name": "Object_40",
      "primitives": [
        {
          "attributes": {
            "NORMAL": 161,
            "POSITION": 160,
            "TEXCOORD_0": 162
          },
          "indices": 163,
          "material": 28,
          "mode": 4
        }
      ]
    },
    {
      "name": "Object_41",
      "primitives": [
        {
          "attributes": {
            "NORMAL": 165,
            "POSITION": 164,
            "TEXCOORD_0": 166
          },
          "indices": 167,
          "material": 29,
          "mode": 4
        }
      ]
    },
    {
      "name": "Object_42",
      "primitives": [
        {
          "attributes": {
            "NORMAL": 169,
            "POSITION": 168,
            "TEXCOORD_0": 170
          },
          "indices": 171,
          "material": 30,
          "mode": 4
        }
      ]
    },
    {
      "name": "Object_43",
      "primitives": [
        {
          "attributes": {
            "NORMAL": 173,
            "POSITION": 172,
            "TEXCOORD_0": 174
          },
          "indices": 175,
          "material": 31,
          "mode": 4
        }
      ]
    },
    {
      "name": "Object_44",
      "primitives": [
        {
          "attributes": {
            "NORMAL": 177,
            "POSITION": 176,
            "TEXCOORD_0": 178
          },
          "indices": 179,
          "material": 32,
          "mode": 4
        }
      ]
    },
    {
      "name": "Object_45",
      "primitives": [
        {
          "attributes": {
            "NORMAL": 181,
            "POSITION": 180,
            "TEXCOORD_0": 182
          },
          "indices": 183,
          "material": 33,
          "mode": 4
        }
      ]
    },
    {
      "name": "Object_46",
      "primitives": [
        {
          "attributes": {
            "NORMAL": 185,
            "POSITION": 184,
            "TEXCOORD_0": 186
          },
          "indices": 187,
          "material": 34,
          "mode": 4
        }
      ]
    },
    {
      "name": "Object_47",
      "primitives": [
        {
          "attributes": {
            "NORMAL": 189,
            "POSITION": 188,
            "TEXCOORD_0": 190
          },
          "indices": 191,
          "material": 35,
          "mode": 4
        }
      ]
    },
    {
      "name": "Object_48",
      "primitives": [
        {
          "attributes": {
            "NORMAL": 193,
            "POSITION": 192,
            "TEXCOORD_0": 194
          },
          "indices": 195,
          "material": 34,
          "mode": 4
        }
      ]
    },
    {
      "name": "Object_49",
      "primitives": [
        {
          "attributes": {
            "NORMAL": 197,
            "POSITION": 196,
            "TEXCOORD_0": 198
          },
          "indices": 199,
          "material": 35,
          "mode": 4
        }
      ]
    },
    {
      "name": "Object_50",
      "primitives": [
        {
          "attributes": {
            "NORMAL": 201,
            "POSITION": 200,
            "TEXCOORD_0": 202
          },
          "indices": 203,
          "material": 34,
          "mode": 4
        }
      ]
    },
    {
      "name": "Object_51",
      "primitives": [
        {
          "attributes": {
            "NORMAL": 205,
            "POSITION": 204,
            "TEXCOORD_0": 206
          },
          "indices": 207,
          "material": 35,
          "mode": 4
        }
      ]
    },
    {
      "name": "Object_52",
      "primitives": [
        {
          "attributes": {
            "NORMAL": 209,
            "POSITION": 208,
            "TEXCOORD_0": 210
          },
          "indices": 211,
          "material": 34,
          "mode": 4
        }
      ]
    },
    {
      "name": "Object_53",
      "primitives": [
        {
          "attributes": {
            "NORMAL": 213,
            "POSITION": 212,
            "TEXCOORD_0": 214
          },
          "indices": 215,
          "material": 35,
          "mode": 4
        }
      ]
    }
  ],
  "nodes": [
    {
      "children": [
        1
      ],
      "matrix": [
        1.0,
        0.0,
        0.0,
        0.0,
        0.0,
        2.220446049250313e-16,
        -1.0,
        0.0,
        0.0,
        1.0,
        2.220446049250313e-16,
        0.0,
        0.0,
        0.0,
        0.0,
        1.0
      ],
      "name": "Sketchfab_model"
    },
    {
      "children": [
        2
      ],
      "name": "root"
    },
    {
      "children": [
        3,
        26,
        49
      ],
      "matrix": [
        1.0,
        0.0,
        0.0,
        0.0,
        0.0,
        2.220446049250313e-16,
        1.0,
        0.0,
        0.0,
        -1.0,
        2.220446049250313e-16,
        0.0,
        0.0,
        0.0,
        0.0,
        1.0
      ],
      "name": "GLTF_SceneRootNode"
    },
    {
      "children": [
        4,
        5,
        6,
        7,
        8,
        9,
        10,
        11,
        12,
        13,
        14,
        17,
        20,
        23
      ],
      "matrix": [
        1.0,
        0.0,
        0.0,
        0.0,
        0.0,
        1.0,
        0.0,
        0.0,
        0.0,
        0.0,
        1.0,
        0.0,
        -0.005150318145751953,
        0.47110843658447266,
        0.09164190292358398,
        1.0
      ],
      "name": "glr-body_4"
    },
    {
      "mesh": 0,
      "name": "Object_4"
    },
    {
      "mesh": 1,
      "name": "Object_5"
    },
    {
      "mesh": 2,
      "name": "Object_6"
    },
    {
      "mesh": 3,
      "name": "Object_7"
    },
    {
      "mesh": 4,
      "name": "Object_8"
    },
    {
      "mesh": 5,
      "name": "Object_9"
    },
    {
      "mesh": 6,
      "name": "Object_10"
    },
    {
      "mesh": 7,
      "name": "Object_11"
    },
    {
      "mesh": 8,
      "name": "Object_12"
    },
    {
      "mesh": 9,
      "name": "Object_13"
    },
    {
      "children": [
        15,
        16
      ],
      "matrix": [
        1.0,
        0.0,
        0.0,
        0.0,
        0.0,
        1.0,
        0.0,
        0.0,
        0.0,
        0.0,
        1.0,
        0.0,
        0.7822613716125488,
        -0.14139819145202637,
        -1.5816102027893066,
        1.0
      ],
      "name": "glr-wheel.Bk.L_0"
    },
    {
      "mesh": 10,
      "name": "Object_15"
    },
    {
      "mesh": 11,
      "name": "Object_16"
    },
    {
      "children": [
        18,
        19
      ],
      "matrix": [
        1.0,
        0.0,
        0.0,
        0.0,
        0.0,
        1.0,
        0.0,
        0.0,
        0.0,
        0.0,
        1.0,
        0.0,
        -0.7708077430725098,
        -0.14139819145202637,
        -1.5816102027893066,
        1.0
      ],
      "name": "glr-wheel.Bk.R_1"
    },
    {
      "mesh": 12,
      "name": "Object_18"
    },
    {
      "mesh": 13,
      "name": "Object_19"
    },
    {
      "children": [
        21,
        22
      ],
      "matrix": [
        1.0,
        0.0,
        0.0,
        0.0,
        0.0,
        1.0,
        0.0,
        0.0,
        0.0,
        0.0,
        1.0,
        0.0,
        0.7822613716125488,
        -0.14139819145202637,
        0.9327306747436523,
        1.0
      ],
      "name": "glr-wheel.Ft.L_2"
    },
    {
      "mesh": 14,
      "name": "Object_21"
    },
    {
      "mesh": 15,
      "name": "Object_22"
    },
    {
      "children": [
        24,
        25
      ],
      "matrix": [
        1.0,
        0.0,
        0.0,
        0.0,
        0.0,
        1.0,
        0.0,
        0.0,
        0.0,
        0.0,
        1.0,
        0.0,
        -0.7708077430725098,
        -0.14139819145202637,
        0.9327306747436523,
        1.0
      ],
      "name": "glr-wheel.Ft.R_3"
    },
    {
      "mesh": 16,
      "name": "Object_24"
    },
    {
      "mesh": 17,
      "name": "Object_25"
    },
    {
      "children": [
        27,
        28,
        29,
        30,
        31,
        32,
        33,
        34,
        35,
        36,
        37,
        40,
        43,
        46
      ],
      "matrix": [
        1.0,
        0.0,
        0.0,
        0.0,
        0.0,
        1.0,
        0.0,
        0.0,
        0.0,
        0.0,
        1.0,
        0.0,
        3.3552985191345215,
        0.47110843658447266,
        1.6167620420455933,
        1.0
      ],
      "name": "glr-body.001_9"
    },
    {
      "mesh": 18,
      "name": "Object_27"
    },
    {
      "mesh": 19,
      "name": "Object_28"
    },
    {
      "mesh": 20,
      "name": "Object_29"
    },
    {
      "mesh": 21,
      "name": "Object_30"
    },
    {
      "mesh": 22,
      "name": "Object_31"
    },
    {
      "mesh": 23,
      "name": "Object_32"
    },
    {
      "mesh": 24,
      "name": "Object_33"
    },
    {
      "mesh": 25,
      "name": "Object_34"
    },
    {
      "mesh": 26,
      "name": "Object_35"
    },
    {
      "mesh": 27,
      "name": "Object_36"
    },
    {
      "children": [
        38,
        39
      ],
      "matrix": [
        1.0,
        0.0,
        0.0,
        0.0,
        0.0,
        1.0,
        0.0,
        0.0,
        0.0,
        0.0,
        1.0,
        0.0,
        0.7822608947753906,
        -0.14139819145202637,
        -1.581610083580017,
        1.0
      ],
      "name": "glr-wheel.Bk.L.001_5"
    },
    {
      "mesh": 28,
      "name": "Object_38"
    },
    {
      "mesh": 29,
      "name": "Object_39"
    },
    {
      "children": [
        41,
        42
      ],
      "matrix": [
        1.0,
        0.0,
        0.0,
        0.0,
        0.0,
        1.0,
        0.0,
        0.0,
        0.0,
        0.0,
        1.0,
        0.0,
        -0.770808219909668,
        -0.14139819145202637,
        -1.581610083580017,
        1.0
      ],
      "name": "glr-wheel.Bk.R.001_6"
    },
    {
      "mesh": 30,
      "name": "Object_41"
    },
    {
      "mesh": 31,
      "name": "Object_42"
    },
    {
      "children": [
        44,
        45
      ],
      "matrix": [
        1.0,
        0.0,
        0.0,
        0.0,
        0.0,
        1.0,
        0.0,
        0.0,
        0.0,
        0.0,
        1.0,
        0.0,
        0.7822608947753906,
        -0.14139819145202637,
        0.9327307939529419,
        1.0
      ],
      "name": "glr-wheel.Ft.L.001_7"
    },
    {
      "mesh": 32,
      "name": "Object_44"
    },
    {
      "mesh": 33,
      "name": "Object_45"
    },
    {
      "children": [
        47,
        48
      ],
      "matrix": [
        1.0,
        0.0,
        0.0,
        0.0,
        0.0,
        1.0,
        0.0,
        0.0,
        0.0,
        0.0,
        1.0,
        0.0,
        -0.770808219909668,
        -0.14139819145202637,
        0.9327307939529419,
        1.0
      ],
      "name": "glr-wheel.Ft.R.001_8"
    },
    {
      "mesh": 34,
      "name": "Object_47"
    },
    {
      "mesh": 35,
      "name": "Object_48"
    },
    {
      "children": [
        50,
        51,
        52,
        53,
        54,
        55,
        56,
        57,
        58,
        59,
        60,
        63,
        66,
        69
      ],
      "matrix": [
        1.0,
        0.0,
        0.0,
        0.0,
        0.0,
        1.0,
        0.0,
        0.0,
        0.0,
        0.0,
        1.0,
        0.0,
        -3.2848544120788574,
        0.47110843658447266,
        -0.8931698203086853,
        1.0
      ],
      "name": "glr-body.002_14"
    },
    {
      "mesh": 36,
      "name": "Object_50"
    },
    {
      "mesh": 37,
      "name": "Object_51"
    },
    {
      "mesh": 38,
      "name": "Object_52"
    },
    {
      "mesh": 39,
      "name": "Object_53"
    },
    {
      "mesh": 40,
      "name": "Object_54"
    },
    {
      "mesh": 41,
      "name": "Object_55"
    },
    {
      "mesh": 42,
      "name": "Object_56"
    },
    {
      "mesh": 43,
      "name": "Object_57"
    },
    {
      "mesh": 44,
      "name": "Object_58"
    },
    {
      "mesh": 45,
      "name": "Object_59"
    },
    {
      "children": [
        61,
        62
      ],
      "matrix": [
        1.0,
        0.0,
        0.0,
        0.0,
        0.0,
        1.0,
        0.0,
        0.0,
        0.0,
        0.0,
        1.0,
        0.0,
        0.7822604179382324,
        -0.14139819145202637,
        -1.5816102027893066,
        1.0
      ],
      "name": "glr-wheel.Bk.L.002_10"
    },
    {
      "mesh": 46,
      "name": "Object_61"
    },
    {
      "mesh": 47,
      "name": "Object_62"
    },
    {
      "children": [
        64,
        65
      ],
      "matrix": [
        1.0,
        0.0,
        0.0,
        0.0,
        0.0,
        1.0,
        0.0,
        0.0,
        0.0,
        0.0,
        1.0,
        0.0,
        -0.7708086967468262,
        -0.14139819145202637,
        -1.5816102027893066,
        1.0
      ],
      "name": "glr-wheel.Bk.R.002_11"
    },
    {
      "mesh": 48,
      "name": "Object_64"
    },
    {
      "mesh": 49,
      "name": "Object_65"
    },
    {
      "children": [
        67,
        68
      ],
      "matrix": [
        1.0,
        0.0,
        0.0,
        0.0,
        0.0,
        1.0,
        0.0,
        0.0,
        0.0,
        0.0,
        1.0,
        0.0,
        0.7822604179382324,
        -0.14139819145202637,
        0.9327306151390076,
        1.0
      ],
      "name": "glr-wheel.Ft.L.002_12"
    },
    {
      "mesh": 50,
      "name": "Object_67"
    },
    {
      "mesh": 51,
      "name": "Object_68"
    },
    {
      "children": [
        70,
        71
      ],
      "matrix": [
        1.0,
        0.0,
        0.0,
        0.0,
        0.0,
        1.0,
        0.0,
        0.0,
        0.0,
        0.0,
        1.0,
        0.0,
        -0.7708086967468262,
        -0.14139819145202637,
        0.9327306151390076,
        1.0
      ],
      "name": "glr-wheel.Ft.R.002_13"
    },
    {
      "mesh": 52,
      "name": "Object_70"
    },
    {
      "mesh": 53,
      "name": "Object_71"
    }
  ],
  "scene": 0,
  "scenes": [
    {
      "name": "Sketchfab_Scene",
      "nodes": [
        0
      ]
    }
  ]
}
